<?xml version="1.0" encoding="utf-8"?>
<!-- Generator: Adobe Illustrator 16.0.0, SVG Export Plug-In . SVG Version: 6.00 Build 0)  -->
<!DOCTYPE svg PUBLIC "-//W3C//DTD SVG 1.1//EN" "http://www.w3.org/Graphics/SVG/1.1/DTD/svg11.dtd">
<svg version="1.1" id="Layer_1" xmlns="http://www.w3.org/2000/svg" xmlns:xlink="http://www.w3.org/1999/xlink" x="0px" y="0px"
	 width="520px" height="320px" viewBox="0 0 520 320" enable-background="new 0 0 520 320" xml:space="preserve">
<g>
	<path fill="#FFFFFF" d="M383.957,102.238c1.347-21.482-6.192-43.418-22.61-59.835c-30.346-30.349-79.549-30.349-109.897,0
		c-8.387,8.387-14.458,18.216-18.21,28.687c-30.382-22.024-73.109-19.348-100.491,8.033c-11.247,11.246-18.326,25.086-21.236,39.592
		c-23.772-0.414-47.682,8.447-65.823,26.588c-35.469,35.475-35.469,92.98,0,128.453c17.755,17.754,41.027,26.619,64.301,26.602
		h0.018h290.965c0.065,0,0.131,0,0.199,0h0.018c25.5-0.029,50.99-9.771,70.446-29.23c38.977-38.971,38.977-102.158,0-141.129
		C447.779,106.143,414.85,96.891,383.957,102.238z"/>
	<path fill="#909090" d="M401.197,309.492H109.912c-26.698,0-51.802-10.4-70.681-29.279c-38.974-38.977-38.974-102.391,0-141.367
		c17.559-17.557,40.492-27.777,65.091-29.125c4.064-13.961,11.571-26.662,21.965-37.055c16.405-16.406,38.216-25.438,61.411-25.438
		c14.648,0,28.768,3.592,41.402,10.471c4.097-7.992,9.416-15.282,15.891-21.756c16.402-16.399,38.213-25.435,61.408-25.435
		s45.006,9.035,61.408,25.438c15.034,15.034,23.944,34.99,25.262,55.986c2.667-0.197,5.34-0.299,8.004-0.299
		c29.094,0,56.445,11.334,77.019,31.906c20.577,20.574,31.907,47.926,31.907,77.025c0,29.096-11.33,56.447-31.907,77.023
		C457.555,298.129,430.247,309.455,401.197,309.492z M109.918,127.834c-21.822,0-42.339,8.496-57.772,23.926
		c-31.85,31.854-31.85,83.686,0.004,115.539c15.427,15.43,35.943,23.926,57.763,23.926v9.133l0.068-9.133h290.991
		c24.385-0.029,47.11-9.459,64.206-26.555c17.124-17.125,26.555-39.893,26.555-64.105c0-24.217-9.431-46.984-26.555-64.109
		c-17.125-17.125-39.893-26.555-64.104-26.555c-5.203,0-10.438,0.451-15.559,1.338c-2.756,0.475-5.574-0.334-7.655-2.201
		s-3.193-4.58-3.018-7.369c1.23-19.648-6.041-38.896-19.952-52.807c-12.95-12.954-30.173-20.086-48.49-20.086
		c-18.319,0-35.539,7.132-48.49,20.086c-7.242,7.239-12.646,15.754-16.072,25.309c-0.969,2.705-3.151,4.799-5.898,5.648
		c-2.744,0.848-5.731,0.357-8.057-1.332c-11.726-8.5-25.621-12.992-40.184-12.992c-18.319,0-35.539,7.135-48.493,20.086
		c-9.6,9.604-16.081,21.68-18.739,34.934c-0.868,4.322-4.667,7.463-9.115,7.332L109.918,127.834z"/>
	<path fill="#FFFFFF" d="M207.761,251.371c-1.341,5.033,7.245,10.16,25.758,14.006c34.526,7.172,90.505,7.172,125.028,0
		c18.516-3.846,27.102-8.973,25.761-14.006h0.134v-66.312H207.624v66.312H207.761z"/>
	<path fill="#909090" d="M296.036,276.844c-24.022,0-46.662-1.953-63.754-5.506c-16.09-3.342-25.616-7.727-29.118-13.398
		c-1.201-1.951-1.748-4.043-1.614-6.148c-0.009-0.141-0.015-0.279-0.015-0.42v-66.312c0-3.363,2.726-6.09,6.089-6.09h176.817
		c3.366,0,6.089,2.727,6.089,6.09v66.312c0,0.141-0.003,0.283-0.012,0.422c0.131,2.109-0.416,4.199-1.617,6.146
		c-3.502,5.672-13.025,10.057-29.115,13.398C342.694,274.891,320.052,276.844,296.036,276.844z M213.819,251.873
		c1.062,1.035,5.485,4.332,20.937,7.543c16.304,3.387,38.066,5.25,61.28,5.25c23.207,0,44.97-1.863,61.273-5.25
		c15.424-3.205,19.86-6.496,20.931-7.537c-0.051-0.6-0.013-1.199,0.112-1.783v-58.949H213.712v59.109
		C213.819,250.785,213.861,251.33,213.819,251.873z"/>
	<path fill="#FFFFFF" d="M358.547,171.902c34.528,7.172,34.528,18.799,0,25.969c-34.523,7.172-90.502,7.172-125.028,0
		c-34.528-7.17-34.528-18.797,0-25.969C268.045,164.729,324.023,164.729,358.547,171.902"/>
	<path fill="#909090" d="M296.036,209.342c-24.022,0-46.662-1.957-63.754-5.51c-20.979-4.355-30.747-10.375-30.747-18.947
		c0-8.568,9.769-14.588,30.747-18.943c17.092-3.551,39.731-5.506,63.754-5.506c24.016,0,46.658,1.955,63.75,5.506
		c20.975,4.355,30.744,10.375,30.744,18.943c0,8.572-9.77,14.592-30.744,18.947C342.694,207.385,320.052,209.342,296.036,209.342z
		 M214.429,184.885c1.805,1.381,6.906,4.238,20.327,7.025c16.304,3.387,38.066,5.254,61.28,5.254c23.207,0,44.97-1.867,61.273-5.254
		c13.427-2.787,18.522-5.645,20.327-7.025c-1.805-1.379-6.9-4.232-20.327-7.021c-16.304-3.387-38.066-5.25-61.273-5.25
		c-23.214,0-44.977,1.863-61.28,5.25C221.335,180.652,216.233,183.506,214.429,184.885z"/>
	<path fill="#FFFFFF" d="M142.193,192.73c-1.338,5.035,7.248,10.16,25.758,14.008c34.529,7.17,90.505,7.17,125.034,0
		c18.51-3.848,27.096-8.973,25.758-14.008h0.135v-66.312H142.057v66.312H142.193z"/>
	<path fill="#909090" d="M230.469,218.205c-24.02,0-46.659-1.953-63.754-5.506c-16.09-3.342-25.616-7.729-29.118-13.4
		c-1.198-1.945-1.742-4.037-1.611-6.143c-0.012-0.139-0.018-0.279-0.018-0.426v-66.312c0-3.363,2.729-6.088,6.089-6.088h176.821
		c3.362,0,6.088,2.725,6.088,6.088v66.312c0,0.145-0.003,0.283-0.015,0.424c0.131,2.107-0.413,4.199-1.614,6.145
		c-3.502,5.672-13.024,10.059-29.115,13.4C277.127,216.252,254.484,218.205,230.469,218.205z M148.258,193.234
		c1.059,1.033,5.482,4.332,20.934,7.543c16.301,3.385,38.063,5.25,61.277,5.25c23.21,0,44.973-1.865,61.276-5.25
		c15.422-3.205,19.857-6.496,20.928-7.537c-0.048-0.602-0.009-1.201,0.116-1.785v-58.949H148.146v59.105
		C148.258,192.143,148.294,192.689,148.258,193.234z"/>
	<path fill="#FFFFFF" d="M292.985,113.262c34.522,7.174,34.522,18.799,0,25.971c-34.529,7.17-90.505,7.17-125.034,0
		c-34.522-7.172-34.522-18.797,0-25.971C202.48,106.092,258.456,106.092,292.985,113.262"/>
	<path fill="#909090" d="M230.469,150.701c-24.02,0-46.659-1.955-63.754-5.506c-20.978-4.357-30.744-10.379-30.744-18.947
		c0-8.57,9.767-14.588,30.744-18.947c17.095-3.549,39.734-5.506,63.754-5.506c24.016,0,46.658,1.957,63.753,5.506
		c20.979,4.359,30.747,10.377,30.747,18.947c0,8.568-9.769,14.59-30.747,18.947C277.127,148.746,254.484,150.701,230.469,150.701z
		 M148.864,126.246c1.802,1.381,6.903,4.238,20.327,7.027c16.301,3.383,38.063,5.25,61.277,5.25c23.21,0,44.973-1.867,61.276-5.25
		c13.424-2.789,18.525-5.646,20.327-7.027c-1.802-1.381-6.903-4.234-20.327-7.023c-16.304-3.387-38.066-5.25-61.276-5.25
		c-23.214,0-44.977,1.863-61.277,5.25C155.768,122.012,150.666,124.865,148.864,126.246z"/>
</g>
</svg>
