<?xml version="1.0" encoding="utf-8"?>
<!-- Generator: Adobe Illustrator 16.0.0, SVG Export Plug-In . SVG Version: 6.00 Build 0)  -->
<!DOCTYPE svg PUBLIC "-//W3C//DTD SVG 1.1//EN" "http://www.w3.org/Graphics/SVG/1.1/DTD/svg11.dtd">
<svg version="1.1" id="Layer_1" xmlns="http://www.w3.org/2000/svg" xmlns:xlink="http://www.w3.org/1999/xlink" x="0px" y="0px"
	 width="520px" height="350.576px" viewBox="0 0 520 350.576" enable-background="new 0 0 520 350.576" xml:space="preserve">
<g>
	<path fill="#FFFFFF" d="M383.957,102.238c1.347-21.482-6.189-43.418-22.607-59.835c-30.349-30.349-79.552-30.349-109.897,0
		c-8.391,8.387-14.461,18.216-18.21,28.687c-30.382-22.024-73.113-19.348-100.492,8.033c-11.25,11.246-18.328,25.086-21.239,39.592
		c-23.772-0.414-47.679,8.447-65.819,26.588c-35.472,35.475-35.472,92.982,0,128.453c17.752,17.756,41.027,26.621,64.297,26.604
		h0.019h290.965c0.065,0,0.134,0,0.199,0h0.021c25.5-0.031,50.991-9.773,70.446-29.232c38.974-38.971,38.974-102.158,0-141.129
		C447.782,106.143,414.853,96.891,383.957,102.238z"/>
	<path fill="#909090" d="M401.203,309.492H109.911c-26.697,0-51.799-10.4-70.678-29.279c-38.977-38.977-38.977-102.391,0-141.367
		c17.556-17.553,40.49-27.775,65.089-29.125c4.062-13.961,11.571-26.658,21.971-37.055c16.399-16.406,38.209-25.438,61.405-25.438
		c14.651,0,28.767,3.592,41.405,10.471c4.094-7.992,9.416-15.282,15.891-21.756c16.399-16.399,38.21-25.435,61.405-25.435
		s45.006,9.035,61.408,25.435c15.034,15.037,23.944,34.993,25.265,55.989c2.664-0.197,5.337-0.299,8.001-0.299
		c29.094,0,56.448,11.334,77.022,31.908c20.576,20.572,31.906,47.924,31.906,77.025c0,29.094-11.33,56.445-31.906,77.021
		C457.558,298.129,430.25,309.455,401.203,309.492z M109.918,127.834c-21.822,0-42.337,8.496-57.77,23.926
		c-31.854,31.854-31.854,83.686,0,115.539c15.43,15.43,35.944,23.926,57.763,23.926v9.135l0.068-9.135h290.992
		c24.385-0.029,47.114-9.459,64.209-26.555c17.124-17.125,26.555-39.893,26.555-64.104c0-24.219-9.431-46.986-26.555-64.111
		c-17.125-17.125-39.893-26.555-64.107-26.555c-5.203,0-10.438,0.451-15.559,1.338c-2.753,0.475-5.574-0.336-7.655-2.201
		c-2.081-1.867-3.193-4.58-3.018-7.369c1.23-19.648-6.038-38.896-19.949-52.807c-12.953-12.954-30.176-20.086-48.493-20.086
		c-18.316,0-35.54,7.132-48.49,20.086c-7.242,7.239-12.647,15.754-16.069,25.309c-0.969,2.705-3.154,4.799-5.901,5.648
		c-2.747,0.844-5.731,0.354-8.057-1.332c-11.723-8.5-25.619-12.992-40.184-12.992c-18.317,0-35.54,7.137-48.49,20.086
		c-9.604,9.604-16.084,21.684-18.742,34.93c-0.865,4.326-4.68,7.457-9.112,7.336L109.918,127.834z"/>
	<rect x="153.74" y="286.582" fill="#FFFFFF" width="236.733" height="27.398"/>
	<path fill="#909090" d="M221.085,332.324c-3.365,0-6.089-2.727-6.089-6.088V213.457c0-3.365,2.724-6.09,6.089-6.09
		c3.359,0,6.089,2.725,6.089,6.09v112.779C227.174,329.598,224.444,332.324,221.085,332.324z"/>
	<path fill="#909090" d="M199.769,265.074c-0.832,0-1.677-0.172-2.485-0.535c-3.068-1.373-4.441-4.977-3.065-8.045l20.425-45.529
		c1.377-3.07,4.979-4.438,8.048-3.064c3.068,1.377,4.438,4.98,3.062,8.047l-20.425,45.529
		C204.317,263.736,202.094,265.074,199.769,265.074z"/>
	<path fill="#909090" d="M243.032,265.074c-2.325,0-4.543-1.338-5.557-3.598l-20.425-45.529c-1.377-3.066-0.003-6.67,3.065-8.047
		c3.062-1.373,6.665-0.006,8.045,3.064l20.425,45.529c1.376,3.068,0.006,6.672-3.062,8.045
		C244.715,264.902,243.867,265.074,243.032,265.074z"/>
	<path fill="#909090" d="M310.954,332.324c-3.362,0-6.089-2.727-6.089-6.088V213.457c0-3.365,2.727-6.09,6.089-6.09
		s6.089,2.725,6.089,6.09v112.779C317.043,329.598,314.316,332.324,310.954,332.324z"/>
	<path fill="#909090" d="M310.071,332.324c-2.325,0-4.546-1.338-5.56-3.598l-20.425-45.529c-1.377-3.066-0.003-6.67,3.065-8.047
		c3.068-1.383,6.668-0.01,8.048,3.064l20.425,45.529c1.376,3.068,0.003,6.672-3.065,8.045
		C311.751,332.152,310.903,332.324,310.071,332.324z"/>
	<path fill="#909090" d="M312.474,332.324c-0.833,0-1.68-0.172-2.488-0.535c-3.068-1.373-4.442-4.977-3.065-8.045l20.425-45.529
		c1.379-3.07,4.985-4.441,8.048-3.064c3.068,1.377,4.441,4.98,3.065,8.047l-20.425,45.529
		C317.02,330.986,314.799,332.324,312.474,332.324z"/>
</g>
</svg>
