<?xml version="1.0" encoding="utf-8"?>
<!-- Generator: Adobe Illustrator 16.0.0, SVG Export Plug-In . SVG Version: 6.00 Build 0)  -->
<!DOCTYPE svg PUBLIC "-//W3C//DTD SVG 1.1//EN" "http://www.w3.org/Graphics/SVG/1.1/DTD/svg11.dtd">
<svg version="1.1" id="Layer_1" xmlns="http://www.w3.org/2000/svg" xmlns:xlink="http://www.w3.org/1999/xlink" x="0px" y="0px"
	 width="520px" height="320px" viewBox="0 0 520 320" enable-background="new 0 0 520 320" xml:space="preserve">
<g>
	<path fill="#FFFFFF" d="M383.996,102.23c1.347-21.485-6.19-43.422-22.609-59.841c-30.352-30.353-79.561-30.353-109.913,0
		c-8.388,8.391-14.459,18.221-18.212,28.692c-30.384-22.029-73.117-19.351-100.502,8.034
		c-11.248,11.245-18.327,25.086-21.238,39.593c-23.778-0.413-47.684,8.45-65.827,26.594c-35.475,35.476-35.475,92.988,0,128.467
		c17.754,17.754,41.032,26.623,64.302,26.605h0.021h290.996c0.065,0,0.134,0,0.199,0h0.018c25.503-0.029,50.999-9.776,70.457-29.234
		c38.975-38.975,38.975-102.17,0-141.145C447.828,106.135,414.896,96.882,383.996,102.23z"/>
	<path fill="#909090" d="M401.241,309.509H109.919c-26.701,0-51.802-10.4-70.683-29.281c-38.98-38.98-38.98-102.402,0-141.383
		c17.558-17.561,40.494-27.783,65.096-29.127c4.064-13.966,11.572-26.665,21.97-37.06c16.404-16.407,38.217-25.44,61.414-25.44
		c14.65,0,28.771,3.592,41.41,10.473c4.095-7.992,9.414-15.283,15.89-21.759c16.404-16.407,38.217-25.44,61.415-25.44
		c23.197,0,45.01,9.033,61.414,25.44c15.036,15.036,23.947,34.996,25.268,55.987c2.664-0.192,5.334-0.291,7.998-0.291
		c29.101,0,56.458,11.331,77.034,31.91c42.474,42.472,42.474,111.587,0,154.062C457.602,298.142,430.291,309.474,401.241,309.509z
		 M109.928,127.831c-21.824,0-42.344,8.498-57.775,23.93c-31.856,31.856-31.856,83.694,0,115.551
		c15.432,15.432,35.948,23.93,57.767,23.93v9.134l0.068-9.134h291.025c24.385-0.03,47.118-9.462,64.215-26.559
		c35.351-35.353,35.351-92.875,0-128.229c-17.126-17.126-39.896-26.558-64.117-26.558c-5.203,0-10.437,0.449-15.557,1.335
		c-2.753,0.473-5.578-0.336-7.656-2.2c-2.081-1.864-3.193-4.582-3.018-7.371c1.23-19.651-6.039-38.9-19.951-52.812
		c-12.955-12.952-30.18-20.088-48.498-20.088c-18.319,0-35.544,7.136-48.499,20.088c-7.239,7.243-12.648,15.759-16.07,25.314
		c-0.97,2.706-3.155,4.8-5.902,5.646c-2.744,0.848-5.729,0.354-8.058-1.332c-11.725-8.501-25.618-12.99-40.186-12.99
		c-18.318,0-35.543,7.133-48.498,20.088c-9.601,9.601-16.082,21.682-18.74,34.934c-0.856,4.273-4.612,7.336-8.953,7.336
		c-0.054,0-0.107,0-0.164,0L109.928,127.831z"/>
	<path fill="#FFFFFF" d="M207.008,255.614c-1.55,5.821,8.379,11.748,29.78,16.192c39.912,8.29,104.627,8.29,144.538,0
		c21.402-4.444,31.33-10.371,29.781-16.192h0.154v-76.659H206.853v76.659H207.008z"/>
	<path fill="#909090" d="M309.059,284.117c-27.706,0-53.812-2.254-73.51-6.349c-18.331-3.809-29.142-8.732-33.046-15.06
		c-1.297-2.1-1.876-4.356-1.722-6.622c-0.012-0.157-0.018-0.312-0.018-0.473v-76.659c0-3.365,2.727-6.089,6.089-6.089h204.409
		c3.362,0,6.089,2.724,6.089,6.089v76.659c0,0.16-0.006,0.321-0.018,0.481c0.155,2.26-0.428,4.514-1.722,6.613
		c-3.903,6.327-14.715,11.251-33.048,15.06C362.867,281.863,336.762,284.117,309.059,284.117z M213.022,256.548
		c1.231,1.588,7.437,5.649,25.003,9.298c18.91,3.928,44.137,6.092,71.033,6.092c26.895,0,52.12-2.164,71.027-6.092
		c17.558-3.648,23.767-7.704,25.003-9.295c-0.119-0.771-0.089-1.549,0.083-2.299v-69.207H212.942v69.386
		C213.094,255.123,213.127,255.84,213.022,256.548z"/>
	<path fill="#FFFFFF" d="M381.326,163.746c39.914,8.29,39.914,21.732,0,30.022c-39.911,8.29-104.626,8.29-144.538,0
		c-39.914-8.29-39.914-21.732,0-30.022C276.7,155.454,341.415,155.454,381.326,163.746"/>
	<path fill="#909090" d="M309.056,206.078c-27.703,0-53.809-2.254-73.507-6.348c-23.73-4.928-34.785-11.594-34.785-20.972
		c0-9.381,11.055-16.044,34.788-20.974c19.695-4.092,45.801-6.346,73.504-6.346c27.706,0,53.812,2.254,73.51,6.346
		c23.73,4.93,34.785,11.593,34.785,20.974c0,9.378-11.055,16.044-34.787,20.972C362.867,203.824,336.762,206.078,309.056,206.078z
		 M213.239,178.759c1.645,1.73,8.07,5.575,24.786,9.048c18.91,3.928,44.137,6.093,71.03,6.093c26.897,0,52.123-2.165,71.03-6.093
		c16.72-3.473,23.145-7.317,24.789-9.048c-1.645-1.736-8.069-5.578-24.786-9.051c-18.91-3.928-44.136-6.089-71.033-6.089
		c-26.894,0-52.12,2.161-71.027,6.089C221.31,173.181,214.884,177.022,213.239,178.759z"/>
	<rect x="147.662" y="99.751" fill="#FFFFFF" width="171.107" height="120.498"/>
	<path fill="#909090" d="M318.77,226.339H147.662c-3.362,0-6.089-2.727-6.089-6.09V99.751c0-3.362,2.727-6.089,6.089-6.089H318.77
		c3.363,0,6.09,2.727,6.09,6.089v120.498C324.859,223.612,322.133,226.339,318.77,226.339z M153.752,214.16h158.929V105.841H153.752
		V214.16z"/>
	<path fill="#909090" d="M165.336,124.358c-3.36,0-6.083-2.718-6.089-6.077c-0.007-3.366,2.717-6.096,6.08-6.102l136.417-0.22
		c0.003,0,0.006,0,0.009,0c3.36,0,6.084,2.721,6.09,6.08c0.006,3.363-2.718,6.093-6.08,6.099l-136.418,0.22
		C165.342,124.358,165.339,124.358,165.336,124.358z"/>
	<path fill="#909090" d="M165.336,141.096c-3.36,0-6.083-2.721-6.089-6.081c-0.007-3.362,2.717-6.092,6.08-6.098l136.417-0.221
		c0.003,0,0.006,0,0.009,0c3.36,0,6.084,2.721,6.09,6.081c0.006,3.362-2.718,6.092-6.08,6.099l-136.418,0.22
		C165.342,141.096,165.339,141.096,165.336,141.096z"/>
	<path fill="#909090" d="M165.336,157.833c-3.36,0-6.083-2.724-6.089-6.081c-0.007-3.362,2.717-6.092,6.08-6.099l136.417-0.22
		c0.003,0,0.006,0,0.009,0c3.36,0,6.084,2.721,6.09,6.078c0.006,3.365-2.718,6.095-6.08,6.101l-136.418,0.221
		C165.342,157.833,165.339,157.833,165.336,157.833z"/>
	<path fill="#909090" d="M165.336,174.566c-3.36,0-6.083-2.721-6.089-6.077c-0.007-3.366,2.717-6.096,6.08-6.102l136.417-0.22
		c0.003,0,0.006,0,0.009,0c3.36,0,6.084,2.724,6.09,6.08c0.006,3.363-2.718,6.093-6.08,6.099l-136.418,0.22
		C165.342,174.566,165.339,174.566,165.336,174.566z"/>
	<path fill="#909090" d="M165.336,191.301c-3.36,0-6.083-2.718-6.089-6.078c-0.007-3.365,2.717-6.095,6.08-6.101l136.417-0.218
		c0.003,0,0.006,0,0.009,0c3.36,0,6.084,2.721,6.09,6.081c0.006,3.362-2.718,6.092-6.08,6.099l-136.418,0.217
		C165.342,191.301,165.339,191.301,165.336,191.301z"/>
	<path fill="#909090" d="M165.336,208.037c-3.36,0-6.083-2.72-6.089-6.08c-0.007-3.363,2.717-6.093,6.08-6.099l136.417-0.217
		c0.003,0,0.006,0,0.009,0c3.36,0,6.084,2.718,6.09,6.077c0.006,3.366-2.718,6.096-6.08,6.102l-136.418,0.217
		C165.342,208.037,165.339,208.037,165.336,208.037z"/>
</g>
</svg>
