<?xml version="1.0" encoding="utf-8"?>
<!-- Generator: Adobe Illustrator 16.0.0, SVG Export Plug-In . SVG Version: 6.00 Build 0)  -->
<!DOCTYPE svg PUBLIC "-//W3C//DTD SVG 1.1//EN" "http://www.w3.org/Graphics/SVG/1.1/DTD/svg11.dtd">
<svg version="1.1" id="Layer_1" xmlns="http://www.w3.org/2000/svg" xmlns:xlink="http://www.w3.org/1999/xlink" x="0px" y="0px"
	 width="520px" height="320px" viewBox="0 0 520 320" enable-background="new 0 0 520 320" xml:space="preserve">
<g>
	<path fill="#FFFFFF" d="M384.007,102.246c1.348-21.494-6.191-43.428-22.607-59.845c-30.353-30.342-79.553-30.342-109.904,0
		c-8.389,8.39-14.463,18.214-18.213,28.693c-30.381-22.033-73.105-19.356-100.488,8.027c-11.251,11.25-18.331,25.088-21.241,39.6
		c-23.779-0.42-47.687,8.447-65.821,26.582c-35.479,35.479-35.479,92.988,0,128.459c17.754,17.754,41.026,26.621,64.298,26.602h0.02
		h290.97c0.068,0,0.137,0,0.205,0h0.01c25.508-0.029,50.996-9.775,70.449-29.229c38.976-38.977,38.976-102.16,0-141.135
		C447.825,106.143,414.896,96.885,384.007,102.246z"/>
	<path fill="#909090" d="M401.253,309.494H109.961c-26.709,0-51.808-10.391-70.694-29.277C20.39,261.34,9.999,236.23,9.999,209.531
		s10.391-51.807,29.277-70.684c17.549-17.559,40.488-27.773,65.089-29.121c4.062-13.965,11.562-26.66,21.963-37.061
		c16.407-16.406,38.214-25.441,61.407-25.441c14.658,0,28.77,3.595,41.416,10.48c4.092-8,9.414-15.285,15.889-21.759
		c16.396-16.406,38.204-25.439,61.407-25.439c23.193,0,45.011,9.033,61.407,25.439c15.029,15.03,23.945,34.992,25.264,55.988
		c2.666-0.195,5.342-0.303,7.998-0.303c29.102,0,56.455,11.338,77.031,31.914c42.472,42.471,42.472,111.572,0,154.045
		C457.601,298.137,430.296,309.465,401.253,309.494z M109.961,127.842c-21.826,0-42.345,8.496-57.774,23.926
		s-23.926,35.947-23.926,57.764c0,21.826,8.496,42.344,23.926,57.775c15.43,15.43,35.948,23.926,57.774,23.926v9.131l0.059-9.131
		h290.999c24.385-0.029,47.109-9.463,64.209-26.553c35.353-35.354,35.353-92.873,0-128.225
		c-17.129-17.119-39.893-26.553-64.111-26.553c-5.195,0-10.43,0.449-15.557,1.338c-2.744,0.479-5.576-0.342-7.646-2.197
		c-2.09-1.865-3.203-4.58-3.027-7.373c1.23-19.648-6.035-38.896-19.951-52.814c-12.949-12.949-30.167-20.078-48.487-20.078
		s-35.538,7.129-48.497,20.078c-7.236,7.248-12.646,15.763-16.064,25.314c-0.977,2.705-3.154,4.795-5.908,5.645
		c-2.744,0.85-5.732,0.361-8.057-1.328c-11.719-8.496-25.615-12.988-40.186-12.988c-18.311,0-35.537,7.129-48.486,20.078
		c-9.601,9.609-16.085,21.689-18.741,34.941c-0.869,4.326-4.746,7.432-9.111,7.334L109.961,127.842z"/>
	<path fill="#909090" d="M131.797,184.375c-2.1,0-4.141-1.094-5.273-3.027c-1.689-2.91-0.703-6.641,2.197-8.33l134.483-78.291
		c2.9-1.689,6.631-0.713,8.32,2.197c1.689,2.9,0.713,6.631-2.197,8.32l-134.473,78.301
		C133.888,184.102,132.833,184.375,131.797,184.375z"/>
	<path fill="#909090" d="M131.797,217.227c-2.1,0-4.141-1.084-5.273-3.027c-1.689-2.9-0.703-6.631,2.197-8.32l134.483-78.301
		c2.9-1.689,6.631-0.703,8.32,2.197c1.689,2.91,0.713,6.641-2.197,8.33l-134.473,78.301
		C133.888,216.963,132.833,217.227,131.797,217.227z"/>
	<path fill="#909090" d="M131.797,249.707c-2.1,0-4.141-1.084-5.273-3.027c-1.689-2.9-0.703-6.631,2.197-8.32l134.483-78.301
		c2.9-1.689,6.631-0.703,8.32,2.207c1.689,2.9,0.713,6.631-2.197,8.32l-134.473,78.291
		C133.888,249.443,132.833,249.707,131.797,249.707z"/>
	<path fill="#909090" d="M131.797,282.189c-2.1,0-4.141-1.074-5.273-3.027c-1.689-2.9-0.703-6.631,2.197-8.32l134.483-78.303
		c2.9-1.689,6.631-0.703,8.32,2.197c1.689,2.91,0.713,6.641-2.197,8.33l-134.473,78.303
		C133.888,281.926,132.833,282.189,131.797,282.189z"/>
	<path fill="#909090" d="M199.024,177.91c-3.271,0-5.977-2.598-6.084-5.898l-0.986-31.055c-0.098-3.359,2.539-6.172,5.898-6.279
		c3.369-0.117,6.172,2.539,6.279,5.898l0.977,31.055c0.107,3.359-2.529,6.172-5.889,6.279
		C199.151,177.91,199.083,177.91,199.024,177.91z"/>
	<path fill="#909090" d="M237.843,188.027c-3.281,0-5.977-2.598-6.084-5.898l-0.977-31.055c-0.107-3.359,2.529-6.172,5.889-6.279
		c3.379-0.068,6.172,2.539,6.279,5.898l0.977,31.055c0.107,3.359-2.529,6.172-5.889,6.279
		C237.97,188.027,237.911,188.027,237.843,188.027z"/>
	<path fill="#909090" d="M169.415,227.529c-3.271,0-5.977-2.607-6.084-5.898l-0.986-31.055c-0.107-3.359,2.539-6.172,5.898-6.279
		c3.398-0.127,6.172,2.529,6.279,5.889l0.977,31.055c0.107,3.359-2.529,6.172-5.889,6.279
		C169.542,227.52,169.474,227.529,169.415,227.529z"/>
	<path fill="#909090" d="M199.024,243.076c-3.271,0-5.977-2.598-6.084-5.898l-0.986-31.055c-0.098-3.359,2.539-6.172,5.898-6.279
		c3.369-0.059,6.172,2.539,6.279,5.898l0.977,31.055c0.107,3.359-2.529,6.172-5.889,6.279
		C199.151,243.076,199.083,243.076,199.024,243.076z"/>
	<path fill="#FFFFFF" d="M318.908,249.512c0,0-2.178-9.619-14.912-15.586c-12.725-5.967-28.653-10.361-29.815-24.238
		c-1.152-13.887,5.029-19.102,6.523-27.715c1.504-8.604-6.523-34.629-6.523-34.629s18.644,2.588,21.437,12.119
		c2.793,9.521,5.586,14.727,5.586,14.727s10.459-18.242,7.451-33.77c-2.998-15.547-11.494-13.789-11.494-13.789
		s24.443,2.91,31.064,11.191c6.632,8.271,5.587,19.912,5.587,19.912s1.865-7.803,13.975-13.857
		c12.119-6.055,26.094,2.598,26.094,2.598s-10.254,7.793-12.109,19.053c-1.865,11.25,15.176,18.105,8.398,39.609
		c-6.787,21.504-19.795,15.518-33.564,23.594C322.844,236.816,318.908,249.512,318.908,249.512z"/>
	<path fill="#909090" d="M318.908,255.596c-0.078,0-0.156,0-0.244,0c-2.715-0.107-5.039-2.012-5.674-4.648
		c-0.117-0.439-2.08-7.061-11.572-11.504c-1.943-0.908-3.955-1.787-5.986-2.656c-11.602-5.02-26.036-11.26-27.315-26.602
		c-0.869-10.43,1.914-16.924,4.15-22.139c1.084-2.549,2.031-4.746,2.441-7.119c0.859-4.941-3.193-21.562-6.338-31.797
		c-0.615-1.982-0.176-4.15,1.172-5.732c1.357-1.592,3.408-2.373,5.479-2.09c3.75,0.527,22.579,3.76,26.397,16.299
		c1.406-5.039,2.275-10.801,1.26-16.035c-0.967-5.029-2.568-7.656-3.877-8.555c-1.426-0.225-2.314-0.332-2.363-0.342
		c-2.969-0.352-5.234-2.812-5.361-5.791s1.934-5.615,4.854-6.211c0.332-0.078,1.035-0.186,2.012-0.186
		c1.445,0,2.949,0.254,4.375,0.762c10.938,1.855,24.893,5.557,30.664,12.764c2.257,2.812,3.8,5.918,4.835,8.926
		c2.002-1.543,4.395-3.076,7.246-4.512c3.711-1.855,7.832-2.793,12.246-2.793c10.518,0,19.404,5.439,19.775,5.664
		c1.709,1.055,2.783,2.881,2.881,4.883c0.088,2.002-0.811,3.926-2.402,5.137c-0.068,0.059-8.359,6.553-9.785,15.195
		c-0.361,2.188,0.947,4.512,3.291,8.447c4.141,6.943,9.805,16.465,4.902,32.012c-5.605,17.773-15.859,20.459-24.912,22.822
		c-3.936,1.035-7.646,2.012-11.367,4.189c-11.407,6.699-14.933,17.227-14.972,17.334
		C323.928,253.867,321.564,255.596,318.908,255.596z M282.96,156.006c2.296,8.906,4.825,20.83,3.751,27.012
		c-0.664,3.779-1.982,6.855-3.252,9.824c-2.052,4.785-3.819,8.926-3.204,16.338c0.625,7.529,7.979,11.221,20.011,16.426
		c2.139,0.928,4.268,1.846,6.318,2.812c5.43,2.539,9.297,5.713,12.031,8.77c3.174-4.482,7.949-9.619,14.913-13.701
		c5.166-3.037,10.098-4.326,14.443-5.469c8.262-2.158,12.803-3.35,16.387-14.707c3.262-10.342-0.146-16.064-3.75-22.119
		c-2.793-4.678-5.957-9.98-4.844-16.66c1.064-6.484,4.326-11.943,7.48-15.898c-1.816-0.479-3.848-0.82-5.938-0.82
		c-2.5,0-4.785,0.508-6.797,1.514c-9.053,4.531-10.752,9.775-10.82,10c-0.742,3.096-3.711,5.02-6.886,4.502
		c-3.145-0.518-5.342-3.457-5.059-6.641c0.01-0.059,0.684-9.365-4.277-15.566c-1.377-1.719-4.746-3.486-9.443-5.059
		c0.225,0.859,0.43,1.748,0.615,2.695c3.389,17.559-7.676,37.129-8.154,37.949c-1.094,1.924-3.223,3.105-5.361,3.066
		c-2.217-0.029-4.238-1.26-5.283-3.203c-0.127-0.244-3.125-5.869-6.064-15.889C289.201,159.238,286.389,157.422,282.96,156.006z"/>
</g>
</svg>
