<?xml version="1.0" encoding="utf-8"?>
<!-- Generator: Adobe Illustrator 16.0.0, SVG Export Plug-In . SVG Version: 6.00 Build 0)  -->
<!DOCTYPE svg PUBLIC "-//W3C//DTD SVG 1.1//EN" "http://www.w3.org/Graphics/SVG/1.1/DTD/svg11.dtd">
<svg version="1.1" id="Layer_1" xmlns="http://www.w3.org/2000/svg" xmlns:xlink="http://www.w3.org/1999/xlink" x="0px" y="0px"
	 width="520px" height="320px" viewBox="0 0 520 320" enable-background="new 0 0 520 320" xml:space="preserve">
<g>
	<path fill="#FFFFFF" d="M383.958,102.239c1.347-21.486-6.189-43.422-22.61-59.837c-30.346-30.348-79.549-30.348-109.899,0
		c-8.387,8.387-14.458,18.218-18.208,28.689c-30.383-22.025-73.111-19.347-100.492,8.032
		c-11.246,11.245-18.326,25.085-21.237,39.592c-23.774-0.413-47.682,8.448-65.823,26.589c-35.47,35.469-35.47,92.979,0,128.447
		c17.755,17.755,41.029,26.621,64.298,26.603h0.019H400.97c0.062,0,0.131,0,0.196,0h0.018c25.5-0.032,50.99-9.77,70.449-29.228
		c38.977-38.977,38.977-102.162,0-141.132C447.783,106.143,414.848,96.888,383.958,102.239z"/>
	<path fill="#919191" d="M401.198,309.488h-291.28c-26.702,0-51.806-10.395-70.688-29.278c-38.974-38.971-38.974-102.386,0-141.36
		c17.557-17.558,40.491-27.777,65.093-29.124c4.062-13.965,11.568-26.662,21.965-37.06c16.402-16.403,38.212-25.433,61.408-25.433
		c14.649,0,28.771,3.593,41.407,10.47c4.094-7.995,9.412-15.283,15.888-21.756c16.403-16.401,38.214-25.436,61.409-25.436
		c23.192,0,45.003,9.037,61.408,25.436c15.031,15.033,23.944,34.99,25.262,55.987c2.667-0.194,5.34-0.296,8.004-0.296
		c29.097,0,56.445,11.332,77.021,31.902C498.67,144.116,510,171.468,510,200.564c0,29.095-11.33,56.452-31.904,77.025
		C457.559,298.125,430.248,309.452,401.198,309.488z M109.918,127.837c-21.821,0-42.338,8.497-57.77,23.929
		c-31.85,31.85-31.85,83.676,0,115.529c15.429,15.43,35.949,23.927,57.77,23.927v9.133l0.064-9.133h290.993
		c24.385-0.033,47.11-9.46,64.206-26.553c17.124-17.124,26.555-39.895,26.555-64.11c0-24.215-9.431-46.984-26.555-64.108
		c-17.125-17.122-39.896-26.554-64.107-26.554c-5.203,0-10.438,0.447-15.559,1.333c-2.753,0.469-5.571-0.331-7.655-2.198
		c-2.084-1.865-3.193-4.585-3.018-7.373c1.23-19.649-6.041-38.895-19.952-52.808c-12.95-12.952-30.173-20.087-48.49-20.087
		c-18.322,0-35.543,7.135-48.492,20.087c-7.242,7.242-12.648,15.758-16.07,25.312c-0.969,2.705-3.154,4.797-5.9,5.645
		c-2.75,0.846-5.732,0.354-8.058-1.334c-11.724-8.497-25.618-12.99-40.184-12.99c-18.318,0-35.536,7.132-48.491,20.086
		c-9.602,9.6-16.08,21.679-18.738,34.932c-0.868,4.327-4.67,7.431-9.115,7.334L109.918,127.837z"/>
	<rect x="154.75" y="113.176" fill="#FFFFFF" width="138.343" height="138.338"/>
	<path fill="#919191" d="M293.093,257.603H154.75c-3.36,0-6.088-2.724-6.088-6.089V113.176c0-3.361,2.728-6.089,6.088-6.089h138.343
		c3.363,0,6.089,2.728,6.089,6.089v138.338C299.182,254.879,296.456,257.603,293.093,257.603z M160.84,245.425h126.165v-126.16
		H160.84V245.425z"/>
	<path fill="#919191" d="M168.432,119.265c-3.328,0-6.047-2.676-6.09-6.017l-0.232-19.236c-0.041-3.361,2.65-6.123,6.014-6.163
		c3.326,0,6.123,2.651,6.163,6.016l0.233,19.238c0.041,3.361-2.652,6.122-6.016,6.162
		C168.48,119.265,168.456,119.265,168.432,119.265z"/>
	<path fill="#919191" d="M186.555,119.265c-3.327,0-6.046-2.676-6.089-6.017l-0.235-19.236c-0.038-3.361,2.652-6.123,6.017-6.163
		c3.353,0,6.122,2.651,6.161,6.016l0.235,19.238c0.04,3.361-2.652,6.122-6.017,6.162
		C186.606,119.265,186.578,119.265,186.555,119.265z"/>
	<path fill="#919191" d="M204.346,119.265c-3.327,0-6.047-2.676-6.09-6.017l-0.232-19.236c-0.041-3.361,2.651-6.123,6.016-6.163
		c3.312,0,6.121,2.651,6.162,6.016l0.232,19.238c0.041,3.361-2.65,6.122-6.014,6.162
		C204.395,119.265,204.371,119.265,204.346,119.265z"/>
	<path fill="#919191" d="M222.135,119.265c-3.328,0-6.046-2.676-6.09-6.017l-0.234-19.236c-0.039-3.361,2.652-6.123,6.016-6.163
		c3.279,0,6.121,2.651,6.162,6.016l0.234,19.238c0.041,3.361-2.651,6.122-6.016,6.162
		C222.187,119.265,222.161,119.265,222.135,119.265z"/>
	<path fill="#919191" d="M239.926,119.265c-3.328,0-6.047-2.676-6.088-6.017l-0.232-19.236c-0.04-3.361,2.655-6.123,6.016-6.163
		c3.236,0,6.122,2.651,6.162,6.019l0.232,19.238c0.038,3.361-2.655,6.119-6.016,6.159
		C239.977,119.265,239.953,119.265,239.926,119.265z"/>
	<path fill="#919191" d="M257.721,119.265c-3.33,0-6.047-2.676-6.09-6.017l-0.234-19.236c-0.039-3.361,2.652-6.123,6.013-6.163
		c3.401,0,6.126,2.651,6.165,6.016l0.231,19.238c0.042,3.361-2.651,6.122-6.016,6.162
		C257.77,119.265,257.744,119.265,257.721,119.265z"/>
	<path fill="#919191" d="M275.514,119.265c-3.333,0-6.047-2.676-6.089-6.017l-0.231-19.236c-0.045-3.361,2.651-6.123,6.011-6.163
		c3.366,0,6.125,2.651,6.166,6.016l0.232,19.238c0.042,3.361-2.652,6.122-6.018,6.162
		C275.556,119.265,275.537,119.265,275.514,119.265z"/>
	<path fill="#919191" d="M169.43,276.844c-3.326,0-6.045-2.682-6.088-6.018l-0.235-19.235c-0.039-3.365,2.651-6.124,6.016-6.166
		c3.312,0.039,6.123,2.652,6.161,6.021l0.235,19.232c0.04,3.365-2.651,6.128-6.016,6.166
		C169.479,276.844,169.453,276.844,169.43,276.844z"/>
	<path fill="#919191" d="M187.551,276.844c-3.328,0-6.047-2.682-6.089-6.018l-0.235-19.235c-0.04-3.365,2.652-6.124,6.016-6.166
		c3.341,0.039,6.122,2.652,6.162,6.021l0.234,19.232c0.039,3.365-2.651,6.128-6.016,6.166
		C187.602,276.844,187.574,276.844,187.551,276.844z"/>
	<path fill="#919191" d="M205.342,276.844c-3.328,0-6.047-2.682-6.09-6.018l-0.234-19.235c-0.039-3.365,2.652-6.124,6.016-6.166
		c3.303,0.039,6.123,2.652,6.162,6.021l0.234,19.232c0.041,3.365-2.652,6.128-6.016,6.166
		C205.391,276.844,205.366,276.844,205.342,276.844z"/>
	<path fill="#919191" d="M223.133,276.844c-3.328,0-6.047-2.682-6.088-6.018l-0.235-19.235c-0.04-3.365,2.651-6.124,6.017-6.166
		c3.266,0.039,6.117,2.652,6.161,6.021l0.235,19.232c0.038,3.365-2.652,6.128-6.017,6.166
		C223.186,276.844,223.157,276.844,223.133,276.844z"/>
	<path fill="#919191" d="M240.924,276.844c-3.326,0-6.045-2.682-6.089-6.018l-0.233-19.235c-0.04-3.365,2.65-6.124,6.015-6.166
		c3.425,0.039,6.123,2.652,6.163,6.021l0.233,19.232c0.04,3.365-2.651,6.128-6.017,6.166
		C240.973,276.844,240.949,276.844,240.924,276.844z"/>
	<path fill="#919191" d="M258.713,276.844c-3.328,0-6.044-2.682-6.086-6.018l-0.234-19.235c-0.041-3.365,2.652-6.124,6.016-6.166
		c3.388,0.039,6.117,2.652,6.159,6.021l0.234,19.232c0.039,3.365-2.652,6.128-6.016,6.166
		C258.768,276.844,258.74,276.844,258.713,276.844z"/>
	<path fill="#919191" d="M276.504,276.844c-3.327,0-6.044-2.682-6.086-6.018l-0.232-19.235c-0.041-3.365,2.649-6.124,6.018-6.166
		c3.354,0.039,6.119,2.652,6.16,6.021l0.232,19.232c0.041,3.365-2.652,6.128-6.018,6.166
		C276.555,276.844,276.53,276.844,276.504,276.844z"/>
	<path fill="#919191" d="M293.09,133.94c-3.329,0-6.047-2.676-6.085-6.016c-0.045-3.361,2.651-6.121,6.014-6.162l19.239-0.229
		c0.023,0,0.05,0,0.074,0c3.326,0,6.044,2.679,6.082,6.017c0.045,3.361-2.651,6.12-6.014,6.16l-19.239,0.23
		C293.144,133.94,293.117,133.94,293.09,133.94z"/>
	<path fill="#919191" d="M293.09,152.067c-3.329,0-6.044-2.676-6.085-6.016c-0.045-3.361,2.651-6.122,6.014-6.162l19.239-0.231
		c3.392,0.072,6.118,2.651,6.156,6.016c0.042,3.364-2.651,6.123-6.011,6.161l-19.242,0.232
		C293.144,152.067,293.117,152.067,293.09,152.067z"/>
	<path fill="#919191" d="M293.09,169.856c-3.329,0-6.047-2.682-6.085-6.018c-0.045-3.359,2.651-6.121,6.014-6.161l19.239-0.23
		c0.023,0,0.05,0,0.074,0c3.326,0,6.044,2.679,6.082,6.018c0.045,3.362-2.651,6.118-6.014,6.16l-19.239,0.231
		C293.144,169.856,293.117,169.856,293.09,169.856z"/>
	<path fill="#919191" d="M293.09,187.647c-3.329,0-6.044-2.676-6.085-6.018c-0.045-3.362,2.651-6.119,6.014-6.157l19.239-0.235
		c3.392,0,6.118,2.652,6.156,6.012c0.045,3.365-2.651,6.128-6.011,6.166l-19.242,0.232
		C293.144,187.647,293.117,187.647,293.09,187.647z"/>
	<path fill="#919191" d="M293.09,205.438c-3.329,0-6.044-2.676-6.085-6.018c-0.045-3.359,2.651-6.118,6.014-6.16l19.239-0.231
		c3.392-0.036,6.118,2.652,6.156,6.015c0.045,3.362-2.651,6.124-6.011,6.163l-19.242,0.231
		C293.144,205.438,293.117,205.438,293.09,205.438z"/>
	<path fill="#919191" d="M293.09,223.229c-3.329,0-6.044-2.676-6.085-6.018c-0.045-3.359,2.651-6.118,6.014-6.16l19.239-0.231
		c3.392-0.075,6.118,2.651,6.156,6.014c0.045,3.363-2.651,6.128-6.011,6.163l-19.242,0.232
		C293.144,223.229,293.117,223.229,293.09,223.229z"/>
	<path fill="#919191" d="M293.09,241.019c-3.329,0-6.044-2.676-6.085-6.02c-0.045-3.36,2.651-6.119,6.014-6.157l19.239-0.232
		c3.392,0.083,6.118,2.652,6.156,6.012c0.045,3.365-2.651,6.124-6.011,6.166l-19.242,0.231
		C293.144,241.019,293.117,241.019,293.09,241.019z"/>
	<path fill="#919191" d="M135.509,135.128c-3.327,0-6.046-2.675-6.089-6.016c-0.038-3.361,2.655-6.123,6.016-6.161l19.238-0.232
		c0.024,0,0.049,0,0.072,0c3.328,0,6.047,2.679,6.089,6.02c0.04,3.36-2.653,6.119-6.015,6.158l-19.238,0.231
		C135.561,135.128,135.534,135.128,135.509,135.128z"/>
	<path fill="#919191" d="M135.509,153.252c-3.327,0-6.046-2.677-6.089-6.016c-0.038-3.361,2.652-6.123,6.016-6.162l19.238-0.231
		c3.36,0.069,6.123,2.651,6.161,6.016c0.04,3.361-2.65,6.122-6.015,6.162l-19.238,0.231
		C135.561,153.252,135.534,153.252,135.509,153.252z"/>
	<path fill="#919191" d="M135.509,171.043c-3.327,0-6.046-2.676-6.089-6.021c-0.038-3.359,2.655-6.117,6.016-6.157l19.238-0.232
		c0.024,0,0.049,0,0.072,0c3.328,0,6.047,2.681,6.089,6.021c0.04,3.359-2.653,6.119-6.015,6.157l-19.238,0.232
		C135.561,171.043,135.534,171.043,135.509,171.043z"/>
	<path fill="#919191" d="M135.509,188.83c-3.327,0-6.046-2.676-6.089-6.018c-0.038-3.359,2.655-6.118,6.016-6.153l19.238-0.232
		c0.024,0,0.049,0,0.072,0c3.328,0,6.047,2.67,6.089,6.015c0.04,3.362-2.653,6.118-6.015,6.157l-19.238,0.231
		C135.561,188.83,135.534,188.83,135.509,188.83z"/>
	<path fill="#919191" d="M135.509,206.621c-3.327,0-6.046-2.676-6.089-6.015c-0.038-3.362,2.652-6.124,6.016-6.163l19.238-0.231
		c3.36-0.036,6.123,2.651,6.161,6.017c0.04,3.36-2.65,6.119-6.015,6.16l-19.238,0.232
		C135.561,206.621,135.534,206.621,135.509,206.621z"/>
	<path fill="#919191" d="M135.509,224.411c-3.327,0-6.046-2.675-6.089-6.011c-0.038-3.366,2.652-6.128,6.016-6.166l19.238-0.232
		c3.36-0.077,6.123,2.652,6.161,6.018c0.04,3.362-2.65,6.118-6.015,6.16l-19.238,0.231
		C135.561,224.411,135.534,224.411,135.509,224.411z"/>
	<path fill="#919191" d="M135.509,242.202c-3.327,0-6.046-2.676-6.089-6.012c-0.038-3.365,2.652-6.124,6.016-6.166l19.238-0.231
		c3.36,0.089,6.123,2.651,6.161,6.018c0.04,3.362-2.65,6.121-6.015,6.16l-19.238,0.231
		C135.561,242.202,135.534,242.202,135.509,242.202z"/>
	<path fill="#FFFFFF" d="M207.758,251.371c-1.339,5.03,7.247,10.156,25.759,14.006c34.528,7.168,90.505,7.168,125.028,0
		c18.516-3.85,27.102-8.973,25.761-14.006h0.134v-66.316H207.621v66.316H207.758L207.758,251.371z"/>
	<path fill="#919191" d="M296.036,276.844c-24.024,0-46.661-1.956-63.755-5.506c-16.09-3.342-25.615-7.729-29.116-13.402
		c-1.202-1.944-1.749-4.043-1.614-6.148c-0.01-0.137-0.016-0.279-0.016-0.416v-66.316c0-3.362,2.729-6.089,6.09-6.089h176.817
		c3.362,0,6.089,2.727,6.089,6.089v66.316c0,0.143-0.003,0.279-0.012,0.422c0.131,2.103-0.419,4.198-1.617,6.143
		c-3.499,5.673-13.025,10.061-29.115,13.402C342.695,274.888,320.056,276.844,296.036,276.844z M213.823,251.87
		c1.06,1.035,5.482,4.335,20.937,7.549c16.303,3.381,38.063,5.25,61.276,5.25c23.208,0,44.968-1.863,61.274-5.25
		c15.421-3.208,19.857-6.502,20.931-7.542c-0.051-0.601-0.013-1.201,0.112-1.784v-58.949H213.713v59.109
		C213.823,250.782,213.859,251.329,213.823,251.87z"/>
	<path fill="#FFFFFF" d="M358.548,171.898c34.528,7.175,34.528,18.799,0,25.97c-34.526,7.168-90.503,7.168-125.028,0
		c-34.525-7.171-34.525-18.795,0-25.97C268.045,164.73,324.021,164.73,358.548,171.898"/>
	<path fill="#919191" d="M296.036,209.338c-24.024,0-46.661-1.956-63.755-5.506c-20.977-4.361-30.746-10.376-30.746-18.947
		s9.77-14.588,30.746-18.947c17.094-3.55,39.73-5.507,63.755-5.507c24.02,0,46.659,1.957,63.751,5.507
		c20.975,4.359,30.744,10.376,30.744,18.947c0,8.568-9.77,14.586-30.744,18.947C342.695,207.382,320.056,209.338,296.036,209.338z
		 M214.43,184.882c1.802,1.386,6.903,4.24,20.326,7.028c16.303,3.384,38.064,5.254,61.277,5.254c23.208,0,44.971-1.864,61.274-5.254
		c13.427-2.788,18.522-5.643,20.33-7.028c-1.808-1.379-6.903-4.233-20.33-7.02c-16.304-3.386-38.066-5.253-61.274-5.253
		c-23.213,0-44.975,1.864-61.277,5.253C221.333,180.648,216.234,183.503,214.43,184.882z"/>
</g>
</svg>
