<?xml version="1.0" encoding="utf-8"?>
<!-- Generator: Adobe Illustrator 16.0.0, SVG Export Plug-In . SVG Version: 6.00 Build 0)  -->
<!DOCTYPE svg PUBLIC "-//W3C//DTD SVG 1.1//EN" "http://www.w3.org/Graphics/SVG/1.1/DTD/svg11.dtd">
<svg version="1.1" id="Layer_1" xmlns="http://www.w3.org/2000/svg" xmlns:xlink="http://www.w3.org/1999/xlink" x="0px" y="0px"
	 width="520px" height="320px" viewBox="0 0 520 320" enable-background="new 0 0 520 320" xml:space="preserve">
<g>
	<path fill="#FFFFFF" d="M383.957,102.238c1.347-21.482-6.192-43.418-22.61-59.835c-30.346-30.349-79.549-30.349-109.897,0
		c-8.388,8.387-14.458,18.216-18.21,28.689c-30.382-22.029-73.11-19.35-100.492,8.031c-11.246,11.246-18.325,25.084-21.236,39.592
		c-23.771-0.416-47.681,8.449-65.822,26.59c-35.469,35.469-35.469,92.98,0,128.451c17.755,17.752,41.027,26.621,64.301,26.602h0.018
		h290.965c0.065,0,0.131,0,0.199,0h0.018c25.5-0.029,50.99-9.771,70.446-29.227c38.977-38.975,38.977-102.16,0-141.133
		C447.779,106.139,414.85,96.887,383.957,102.238z"/>
	<path fill="#909090" d="M401.197,309.492H109.918c-26.704,0-51.809-10.398-70.688-29.279c-38.973-38.973-38.973-102.395,0-141.365
		c17.56-17.559,40.493-27.779,65.092-29.127c4.062-13.963,11.571-26.658,21.965-37.055c16.405-16.402,38.216-25.438,61.411-25.438
		c14.648,0,28.767,3.595,41.402,10.475c4.097-7.999,9.413-15.283,15.891-21.76c16.402-16.402,38.213-25.435,61.408-25.435
		s45.006,9.032,61.405,25.435c15.037,15.034,23.947,34.989,25.265,55.985c2.667-0.195,5.34-0.295,8.004-0.295
		c29.094,0,56.448,11.33,77.021,31.906c20.574,20.574,31.904,47.93,31.904,77.023c0,29.098-11.33,56.451-31.907,77.025
		C457.555,298.125,430.244,309.459,401.197,309.492z M109.918,127.836c-21.822,0-42.339,8.496-57.772,23.928
		c-31.85,31.852-31.85,83.678,0.003,115.535c15.428,15.43,35.947,23.926,57.77,23.926v9.133l0.062-9.133h290.991
		c24.382-0.025,47.11-9.457,64.205-26.551c17.125-17.125,26.556-39.893,26.556-64.111c0-24.215-9.431-46.982-26.556-64.105
		c-17.124-17.127-39.889-26.557-64.104-26.557c-5.203,0-10.438,0.449-15.559,1.334c-2.756,0.473-5.574-0.332-7.655-2.197
		c-2.081-1.867-3.193-4.58-3.018-7.369c1.23-19.652-6.041-38.9-19.952-52.807c-12.95-12.954-30.174-20.086-48.49-20.086
		c-18.319,0-35.539,7.132-48.493,20.086c-7.239,7.239-12.645,15.756-16.069,25.309c-0.969,2.709-3.151,4.799-5.898,5.646
		c-2.747,0.85-5.732,0.355-8.057-1.332c-11.726-8.498-25.622-12.99-40.184-12.99c-18.32,0-35.54,7.133-48.493,20.086
		c-9.6,9.604-16.081,21.682-18.739,34.93c-0.868,4.33-4.668,7.4-9.115,7.338L109.918,127.836z"/>
	<rect x="170.978" y="90.543" fill="#FFFFFF" width="71.198" height="71.197"/>
	<path fill="#909090" d="M242.176,167.83h-71.198c-3.365,0-6.089-2.725-6.089-6.09V90.543c0-3.363,2.724-6.09,6.089-6.09h71.198
		c3.362,0,6.089,2.727,6.089,6.09v71.197C248.265,165.105,245.538,167.83,242.176,167.83z M177.066,155.652h59.021V96.631h-59.021
		V155.652z"/>
	
		<rect x="181.404" y="204.922" transform="matrix(-0.7071 -0.7071 0.7071 -0.7071 189.935 538.8677)" fill="#FFFFFF" width="50.346" height="50.345"/>
	<path fill="#909090" d="M206.577,271.785c-1.559,0-3.116-0.596-4.305-1.785l-35.6-35.598c-1.142-1.143-1.784-2.695-1.784-4.307
		c0-1.617,0.643-3.162,1.784-4.305l35.6-35.602c1.141-1.143,2.69-1.783,4.305-1.783l0,0c1.614,0,3.163,0.641,4.305,1.783
		l35.6,35.602c2.378,2.375,2.378,6.232,0,8.611L210.882,270C209.692,271.189,208.135,271.785,206.577,271.785z M179.588,230.096
		l26.989,26.986l26.989-26.986l-26.989-26.988L179.588,230.096z"/>
	<polygon fill="#FFFFFF" points="292.016,90.543 348.979,90.543 334.738,161.74 277.775,161.74 	"/>
	<path fill="#909090" d="M334.738,167.83h-56.963c-1.823,0-3.55-0.814-4.71-2.229c-1.153-1.412-1.617-3.266-1.26-5.053l14.24-71.201
		c0.571-2.846,3.068-4.895,5.97-4.895h56.964c1.822,0,3.55,0.818,4.709,2.23c1.153,1.408,1.617,3.264,1.261,5.055l-14.241,71.197
		C340.138,165.783,337.64,167.83,334.738,167.83z M285.202,155.652h44.542l11.809-59.021h-44.542L285.202,155.652z"/>
	<path fill="#909090" d="M278.688,132.23h-30.423c-3.362,0-6.089-2.727-6.089-6.09c0-3.361,2.727-6.088,6.089-6.088h30.423
		c3.362,0,6.089,2.727,6.089,6.088C284.776,129.504,282.05,132.23,278.688,132.23z"/>
	<path fill="#909090" d="M206.577,194.494c-3.362,0-6.089-2.727-6.089-6.088V167.83c0-3.359,2.727-6.09,6.089-6.09
		s6.089,2.73,6.089,6.09v20.576C212.666,191.768,209.939,194.494,206.577,194.494z"/>
	<rect x="277.775" y="194.494" fill="#FFFFFF" width="71.204" height="71.201"/>
	<path fill="#909090" d="M348.979,271.785h-71.204c-3.359,0-6.089-2.73-6.089-6.09v-71.201c0-3.361,2.729-6.088,6.089-6.088h71.204
		c3.359,0,6.089,2.727,6.089,6.088v71.201C355.068,269.055,352.339,271.785,348.979,271.785z M283.864,259.607h59.026v-59.023
		h-59.026V259.607z"/>
	<path fill="#909090" d="M271.687,236.186h-23.422c-3.362,0-6.089-2.73-6.089-6.09c0-3.365,2.727-6.088,6.089-6.088h23.422
		c3.365,0,6.089,2.723,6.089,6.088C277.775,233.455,275.052,236.186,271.687,236.186z"/>
</g>
</svg>
