<?xml version="1.0" encoding="utf-8"?>
<!-- Generator: Adobe Illustrator 16.0.0, SVG Export Plug-In . SVG Version: 6.00 Build 0)  -->
<!DOCTYPE svg PUBLIC "-//W3C//DTD SVG 1.1//EN" "http://www.w3.org/Graphics/SVG/1.1/DTD/svg11.dtd">
<svg version="1.1" id="Layer_1" xmlns="http://www.w3.org/2000/svg" xmlns:xlink="http://www.w3.org/1999/xlink" x="0px" y="0px"
	 width="520px" height="320px" viewBox="0 0 520 320" enable-background="new 0 0 520 320" xml:space="preserve">
<g>
	<path fill="#FFFFFF" d="M383.955,102.237c1.347-21.483-6.189-43.419-22.607-59.836c-30.349-30.349-79.552-30.349-109.897,0
		c-8.391,8.39-14.461,18.219-18.21,28.69c-30.382-22.027-73.113-19.349-100.492,8.033c-11.25,11.243-18.328,25.083-21.239,39.589
		c-23.772-0.414-47.678,8.449-65.819,26.591c-35.472,35.471-35.472,92.979,0,128.453c17.752,17.752,41.027,26.62,64.296,26.603
		h0.019H400.97c0.065,0,0.134,0,0.199,0h0.021c25.5-0.03,50.991-9.775,70.446-29.231c38.974-38.971,38.974-102.159,0-141.13
		C447.78,106.141,414.851,96.889,383.955,102.237z"/>
	<path fill="#909090" d="M401.201,309.493H109.909c-26.697,0-51.798-10.399-70.677-29.278c-38.977-38.977-38.977-102.392,0-141.368
		c17.556-17.556,40.49-27.777,65.088-29.124c4.062-13.964,11.571-26.662,21.971-37.056c16.399-16.405,38.209-25.438,61.405-25.438
		c14.651,0,28.767,3.592,41.405,10.472c4.094-7.995,9.412-15.281,15.888-21.757c16.402-16.405,38.213-25.438,61.408-25.438
		s45.006,9.032,61.408,25.438c15.034,15.034,23.944,34.992,25.265,55.982c2.664-0.193,5.334-0.292,7.998-0.292
		c29.097,0,56.451,11.33,77.025,31.907C498.67,144.115,510,171.467,510,200.564c0,29.097-11.33,56.449-31.906,77.022
		C457.553,298.127,430.245,309.457,401.201,309.493z M109.916,127.835c-21.822,0-42.336,8.497-57.769,23.927
		c-31.854,31.854-31.854,83.686,0,115.538c15.43,15.43,35.944,23.927,57.762,23.927v9.134l0.068-9.134H400.97
		c24.385-0.029,47.114-9.46,64.209-26.555c17.124-17.125,26.555-39.893,26.555-64.107c0-24.216-9.431-46.983-26.555-64.107
		c-17.125-17.125-39.893-26.556-64.11-26.556c-5.203,0-10.436,0.449-15.556,1.335c-2.753,0.473-5.574-0.336-7.655-2.2
		s-3.193-4.581-3.018-7.37c1.23-19.648-6.038-38.896-19.949-52.807c-12.953-12.951-30.176-20.086-48.493-20.086
		c-18.316,0-35.54,7.135-48.49,20.086c-7.242,7.242-12.647,15.757-16.069,25.312c-0.969,2.705-3.154,4.798-5.901,5.646
		c-2.747,0.847-5.731,0.354-8.057-1.332c-11.723-8.5-25.619-12.989-40.184-12.989c-18.317,0-35.54,7.133-48.49,20.086
		c-9.604,9.603-16.084,21.68-18.742,34.927c-0.865,4.326-4.68,7.492-9.112,7.338L109.916,127.835z"/>
	<path fill="#FFFFFF" d="M347.768,114.997c36.381,36.378,36.381,95.363,0,131.744s-95.366,36.381-131.744,0
		c-36.381-36.381-36.381-95.366,0-131.744C252.401,78.613,311.387,78.613,347.768,114.997"/>
	<path fill="#909090" d="M281.894,280.116c-26.508,0-51.434-10.325-70.176-29.07c-38.696-38.693-38.696-101.659,0-140.354
		c18.742-18.748,43.668-29.07,70.176-29.07c26.511,0,51.434,10.322,70.179,29.07c18.745,18.742,29.07,43.668,29.07,70.176
		c0,26.51-10.325,51.433-29.07,70.178S308.404,280.116,281.894,280.116z M281.894,93.8c-23.255,0-45.122,9.056-61.565,25.502
		c-33.946,33.946-33.946,89.186,0,123.135c16.443,16.443,38.311,25.503,61.565,25.503c23.259,0,45.122-9.06,61.569-25.503
		c16.443-16.444,25.502-38.311,25.502-61.568c0-23.256-9.059-45.122-25.502-61.566C327.016,102.855,305.152,93.8,281.894,93.8z"/>
	<path fill="#909090" d="M280.518,279.911c-3.363,0-6.089-2.723-6.089-6.089v-70.615c0-3.359,2.726-6.089,6.089-6.089
		c3.362,0,6.088,2.729,6.088,6.089v70.615C286.605,277.188,283.88,279.911,280.518,279.911z"/>
	<path fill="#909090" d="M263.196,246.295c-0.835,0-1.68-0.172-2.488-0.535c-3.068-1.376-4.442-4.979-3.062-8.048l16.593-36.996
		c1.377-3.068,4.982-4.436,8.048-3.062c3.068,1.377,4.441,4.978,3.065,8.045l-16.596,36.997
		C267.742,244.954,265.521,246.295,263.196,246.295z"/>
	<path fill="#909090" d="M298.353,246.295c-2.325,0-4.546-1.341-5.56-3.6l-16.596-36.997c-1.376-3.067-0.003-6.668,3.065-8.045
		c3.065-1.379,6.671-0.006,8.048,3.062l16.596,36.996c1.376,3.068,0.003,6.672-3.065,8.048
		C300.032,246.123,299.185,246.295,298.353,246.295z"/>
	<path fill="#909090" d="M280.518,166.645c-3.363,0-6.089-2.723-6.089-6.089V89.943c0-3.362,2.726-6.089,6.089-6.089
		c3.362,0,6.088,2.727,6.088,6.089v70.612C286.605,163.922,283.88,166.645,280.518,166.645z"/>
	<path fill="#909090" d="M279.798,166.647c-2.325,0-4.546-1.341-5.56-3.601l-16.593-36.996c-1.38-3.068-0.006-6.668,3.062-8.045
		c3.065-1.373,6.671-0.006,8.048,3.062l16.596,36.996c1.376,3.068,0.003,6.672-3.065,8.048
		C281.478,166.476,280.63,166.647,279.798,166.647z"/>
	<path fill="#909090" d="M281.751,166.647c-0.832,0-1.68-0.172-2.488-0.535c-3.068-1.376-4.441-4.979-3.065-8.048l16.596-36.996
		c1.377-3.068,4.985-4.433,8.048-3.062c3.068,1.377,4.441,4.977,3.065,8.045l-16.596,36.996
		C286.297,165.307,284.076,166.647,281.751,166.647z"/>
	<path fill="#909090" d="M265.01,184.412h-70.615c-3.362,0-6.089-2.724-6.089-6.089c0-3.36,2.727-6.089,6.089-6.089h70.615
		c3.362,0,6.089,2.729,6.089,6.089C271.099,181.688,268.372,184.412,265.01,184.412z"/>
	<path fill="#909090" d="M231.388,201.732c-0.832,0-1.68-0.172-2.488-0.535l-36.996-16.596c-3.068-1.379-4.439-4.979-3.065-8.048
		c1.376-3.071,4.982-4.436,8.048-3.065l36.996,16.596c3.068,1.38,4.439,4.98,3.065,8.048
		C235.934,200.392,233.713,201.732,231.388,201.732z"/>
	<path fill="#909090" d="M194.397,183.178c-2.325,0-4.543-1.341-5.56-3.598c-1.374-3.067-0.006-6.671,3.062-8.048l36.996-16.596
		c3.068-1.379,6.672-0.006,8.051,3.062c1.374,3.068,0.006,6.672-3.062,8.045l-36.996,16.599
		C196.077,183.006,195.229,183.178,194.397,183.178z"/>
	<path fill="#909090" d="M368.965,183.897H298.35c-3.362,0-6.089-2.727-6.089-6.089s2.727-6.089,6.089-6.089h70.615
		c3.362,0,6.089,2.727,6.089,6.089S372.327,183.897,368.965,183.897z"/>
	<path fill="#909090" d="M368.962,183.178c-0.832,0-1.68-0.172-2.488-0.535l-36.996-16.599c-3.068-1.373-4.442-4.977-3.065-8.045
		c1.376-3.068,4.985-4.436,8.048-3.062l36.996,16.596c3.068,1.377,4.442,4.98,3.065,8.048
		C373.508,181.837,371.287,183.178,368.962,183.178z"/>
	<path fill="#909090" d="M331.972,201.732c-2.325,0-4.546-1.341-5.56-3.601c-1.377-3.067-0.003-6.668,3.065-8.048l36.996-16.596
		c3.065-1.379,6.672-0.006,8.048,3.065c1.377,3.068,0.003,6.669-3.065,8.048l-36.996,16.596
		C333.651,201.561,332.804,201.732,331.972,201.732z"/>
</g>
</svg>
