<?xml version="1.0" encoding="utf-8"?>
<!-- Generator: Adobe Illustrator 16.0.0, SVG Export Plug-In . SVG Version: 6.00 Build 0)  -->
<!DOCTYPE svg PUBLIC "-//W3C//DTD SVG 1.1//EN" "http://www.w3.org/Graphics/SVG/1.1/DTD/svg11.dtd">
<svg version="1.1" id="Layer_1" xmlns="http://www.w3.org/2000/svg" xmlns:xlink="http://www.w3.org/1999/xlink" x="0px" y="0px"
	 width="520px" height="320px" viewBox="0 0 520 320" enable-background="new 0 0 520 320" xml:space="preserve">
<g>
	<path fill="#FFFFFF" d="M384.008,102.237c1.347-21.483-6.189-43.419-22.607-59.836c-30.35-30.35-79.554-30.35-109.903,0
		c-8.387,8.387-14.458,18.216-18.207,28.69c-30.385-22.031-73.114-19.353-100.496,8.03c-11.247,11.247-18.326,25.084-21.236,39.592
		c-23.776-0.416-47.68,8.45-65.822,26.592c-35.472,35.469-35.472,92.98,0,128.452c17.752,17.752,41.029,26.621,64.296,26.603h0.021
		h290.97c0.065,0,0.134,0,0.199,0h0.019c25.503-0.029,50.994-9.772,70.45-29.228c38.971-38.975,38.971-102.161,0-141.136
		C447.834,106.138,414.904,96.886,384.008,102.237z"/>
	<path fill="#909090" d="M401.252,309.494H109.961c-26.702,0-51.803-10.396-70.683-29.279C20.396,261.333,10,236.231,10,209.53
		s10.396-51.804,29.278-70.686c17.557-17.556,40.491-27.777,65.09-29.124c4.064-13.965,11.571-26.66,21.969-37.057
		c16.402-16.402,38.213-25.438,61.409-25.438c14.647,0,28.768,3.595,41.405,10.474c4.095-7.994,9.41-15.281,15.889-21.757
		c16.402-16.405,38.213-25.438,61.409-25.438c23.195,0,45.006,9.032,61.409,25.435c15.034,15.035,23.944,34.99,25.265,55.986
		c2.664-0.196,5.334-0.294,8.001-0.294c29.095,0,56.45,11.33,77.023,31.906c42.471,42.471,42.471,111.577,0,154.051
		C457.606,298.128,430.299,309.461,401.252,309.494z M109.964,127.836c-21.822,0-42.34,8.497-57.771,23.927
		c-15.43,15.431-23.927,35.945-23.927,57.768s8.497,42.337,23.927,57.77c15.431,15.431,35.946,23.928,57.768,23.928v9.133
		l0.065-9.133h290.996c24.383-0.026,47.114-9.457,64.21-26.556c35.347-35.347,35.347-92.867,0-128.217
		c-17.125-17.125-39.893-26.556-64.108-26.556c-5.203,0-10.438,0.448-15.559,1.335c-2.75,0.47-5.574-0.333-7.655-2.2
		c-2.081-1.864-3.193-4.579-3.018-7.367c1.23-19.652-6.039-38.9-19.949-52.809c-12.954-12.953-30.178-20.086-48.494-20.086
		c-18.317,0-35.541,7.133-48.494,20.086c-7.239,7.243-12.647,15.758-16.066,25.311c-0.97,2.705-3.154,4.798-5.902,5.646
		c-2.74,0.851-5.729,0.356-8.057-1.332c-11.723-8.497-25.619-12.989-40.184-12.989c-18.317,0-35.541,7.132-48.494,20.086
		c-9.601,9.604-16.082,21.683-18.74,34.931c-0.855,4.275-4.61,7.338-8.951,7.338c-0.054,0-0.107,0-0.164,0L109.964,127.836z"/>
	<path fill="#FFFFFF" d="M265.486,279.454c0,0,1.266-6.645,8.226-18.281c6.964-11.631,50.002,0,63.928-25.759
		c13.923-25.756-4.219-76.004-2.533-95.556c1.688-19.548,12.659-19.94,12.659-19.94l-12.025-19.11c0,0-1.897,2.491-7.594,7.478
		c-5.696,4.985-13.926,4.156-13.926,4.156h-97.47c0,0-8.229,0.829-13.926-4.156c-5.696-4.986-7.597-7.478-7.597-7.478l-12.022,19.11
		c0,0,10.971,0.393,12.656,19.94c1.688,19.552-16.456,69.8-2.53,95.556c13.923,25.759,56.964,14.128,63.924,25.759
		C264.219,272.81,265.486,279.454,265.486,279.454z"/>
	<path fill="#909090" d="M265.492,285.517c-0.019,0-0.036,0-0.057,0c-2.884-0.027-5.36-2.049-5.923-4.876
		c-0.044-0.205-1.386-6.154-7.48-16.341c-1.233-2.062-11.11-3.121-17.009-3.755c-15.695-1.686-37.188-3.992-47.049-22.235
		c-10.139-18.754-5.235-47.549-1.293-70.686c1.863-10.955,3.627-21.302,3.115-27.239c-1.156-13.394-6.85-14.365-7.091-14.401
		c-2.322,0.146-4.008-0.99-5.179-2.958c-1.169-1.963-0.693-4.412,0.526-6.351l12.022-19.111c1.062-1.688,2.884-2.75,4.879-2.839
		c2.037-0.104,3.907,0.806,5.117,2.391l0,0c0,0,1.795,2.238,6.764,6.588c3.508,3.071,8.913,2.709,9.348,2.673
		c0.172-0.012,0.395-0.023,0.567-0.023h97.47c0.205,0,0.407,0.009,0.612,0.029c0.214,0.018,5.795,0.393,9.303-2.679
		c4.989-4.367,6.775-6.606,6.794-6.627c1.225-1.552,3.157-2.456,5.119-2.328c1.975,0.104,3.791,1.145,4.844,2.815l12.025,19.111
		c1.219,1.938,1.555,4.397,0.387,6.362s-3.038,3.134-5.322,2.967c0.042,0.016-5.651,0.987-6.811,14.381
		c-0.512,5.938,1.251,16.284,3.115,27.236c3.942,23.137,8.848,51.935-1.29,70.688c-9.864,18.243-31.357,20.55-47.049,22.235
		c-5.901,0.634-15.775,1.692-17.013,3.755c-6.172,10.317-7.468,16.287-7.479,16.347
		C270.867,283.471,268.369,285.517,265.492,285.517z M192.051,117.293c4.302,3.276,8.809,9.65,9.876,22.043
		c0.648,7.495-1.153,18.079-3.24,30.334c-3.627,21.29-8.141,47.792,0.003,62.848c6.814,12.612,23.188,14.369,37.633,15.918
		c11.703,1.258,21.809,2.343,26.158,9.612c1.135,1.896,2.131,3.672,3.006,5.325c0.871-1.65,1.866-3.429,3.002-5.325
		c4.35-7.27,14.458-8.354,26.16-9.612c14.443-1.549,30.816-3.306,37.634-15.918c8.144-15.059,3.627-41.558,0-62.854
		c-2.087-12.252-3.889-22.833-3.241-30.328c1.07-12.393,5.578-18.767,9.88-22.043l-4.225-6.71c-0.758,0.701-1.603,1.463-2.539,2.283
		c-5.682,4.974-12.813,5.714-16.563,5.714c-0.729,0-1.284-0.026-1.62-0.05h-96.976c-0.336,0.023-0.893,0.05-1.621,0.05
		c-3.749,0-10.881-0.74-16.562-5.714c-0.937-0.82-1.781-1.582-2.542-2.283L192.051,117.293z"/>
</g>
</svg>
