<?xml version="1.0" encoding="utf-8"?>
<!-- Generator: Adobe Illustrator 16.0.0, SVG Export Plug-In . SVG Version: 6.00 Build 0)  -->
<!DOCTYPE svg PUBLIC "-//W3C//DTD SVG 1.1//EN" "http://www.w3.org/Graphics/SVG/1.1/DTD/svg11.dtd">
<svg version="1.1" id="Layer_1" xmlns="http://www.w3.org/2000/svg" xmlns:xlink="http://www.w3.org/1999/xlink" x="0px" y="0px"
	 width="520px" height="320px" viewBox="0 0 520 320" enable-background="new 0 0 520 320" xml:space="preserve">
<g>
	<path fill="#FFFFFF" d="M383.957,102.236c1.347-21.482-6.192-43.418-22.61-59.835c-30.346-30.349-79.549-30.349-109.897,0
		c-8.388,8.39-14.458,18.219-18.21,28.689c-30.382-22.026-73.11-19.348-100.491,8.033c-11.247,11.244-18.326,25.084-21.236,39.589
		c-23.772-0.413-47.682,8.45-65.823,26.591c-35.469,35.472-35.469,92.979,0,128.453c17.755,17.752,41.027,26.621,64.301,26.603
		h0.018h290.965c0.065,0,0.131,0,0.199,0h0.018c25.5-0.029,50.99-9.775,70.446-29.23c38.977-38.971,38.977-102.159,0-141.13
		C447.779,106.141,414.85,96.889,383.957,102.236z"/>
	<path fill="#909090" d="M401.197,309.493H109.912c-26.698,0-51.803-10.4-70.681-29.278c-38.974-38.977-38.974-102.392,0-141.368
		c17.559-17.559,40.492-27.78,65.091-29.124c4.064-13.964,11.571-26.662,21.965-37.056c16.405-16.405,38.216-25.438,61.411-25.438
		c14.648,0,28.768,3.592,41.402,10.472c4.097-7.995,9.413-15.282,15.891-21.757c16.402-16.405,38.213-25.438,61.408-25.438
		s45.006,9.032,61.405,25.438c15.037,15.031,23.947,34.992,25.265,55.981c2.664-0.192,5.337-0.291,7.998-0.291
		c29.1,0,56.454,11.33,77.027,31.906c20.574,20.574,31.904,47.926,31.904,77.022c0,29.098-11.33,56.449-31.907,77.022
		C457.555,298.127,430.244,309.457,401.197,309.493z M109.918,127.835c-21.822,0-42.339,8.496-57.772,23.927
		c-31.85,31.853-31.85,83.685,0.003,115.538c15.428,15.43,35.944,23.927,57.764,23.927v9.133l0.068-9.133h290.991
		c24.382-0.029,47.11-9.46,64.206-26.555c17.124-17.125,26.555-39.893,26.555-64.108c0-24.215-9.431-46.982-26.555-64.107
		c-17.125-17.124-39.893-26.555-64.11-26.555c-5.2,0-10.433,0.449-15.553,1.335c-2.756,0.473-5.574-0.336-7.655-2.2
		s-3.193-4.581-3.018-7.37c1.23-19.648-6.041-38.896-19.952-52.807c-12.95-12.951-30.173-20.086-48.49-20.086
		c-18.319,0-35.539,7.135-48.493,20.086c-7.239,7.242-12.645,15.757-16.069,25.312c-0.969,2.706-3.151,4.799-5.898,5.646
		c-2.747,0.847-5.731,0.354-8.057-1.332c-11.726-8.5-25.622-12.989-40.184-12.989c-18.32,0-35.54,7.132-48.493,20.086
		c-9.6,9.6-16.081,21.679-18.739,34.93c-0.868,4.326-4.766,7.415-9.115,7.335L109.918,127.835z"/>
	<rect x="161.179" y="127.437" fill="#FFFFFF" width="171.089" height="120.484"/>
	<path fill="#909090" d="M332.268,254.01H161.179c-3.359,0-6.089-2.729-6.089-6.089V127.437c0-3.363,2.729-6.089,6.089-6.089
		h171.089c3.362,0,6.089,2.726,6.089,6.089v120.484C338.356,251.281,335.63,254.01,332.268,254.01z M167.268,241.832h158.911
		V133.525H167.268V241.832z"/>
	<path fill="#909090" d="M178.851,152.041c-3.359,0-6.083-2.718-6.089-6.077c-0.006-3.365,2.718-6.095,6.077-6.101l136.402-0.22
		c0.006,0,0.009,0,0.012,0c3.359,0,6.083,2.72,6.089,6.08c0.006,3.362-2.717,6.092-6.077,6.098l-136.402,0.22
		C178.856,152.041,178.854,152.041,178.851,152.041z"/>
	<path fill="#909090" d="M178.851,168.776c-3.359,0-6.083-2.721-6.089-6.08c-0.006-3.362,2.718-6.092,6.077-6.098l136.402-0.22
		c0.006,0,0.009,0,0.012,0c3.359,0,6.083,2.72,6.089,6.08c0.006,3.362-2.717,6.091-6.077,6.098l-136.402,0.22
		C178.856,168.776,178.854,168.776,178.851,168.776z"/>
	<path fill="#909090" d="M178.851,185.512c-3.359,0-6.083-2.724-6.089-6.08c-0.006-3.362,2.718-6.092,6.077-6.098l136.402-0.22
		c0.006,0,0.009,0,0.012,0c3.359,0,6.083,2.72,6.089,6.076c0.006,3.366-2.717,6.095-6.077,6.101l-136.402,0.221
		C178.856,185.512,178.854,185.512,178.851,185.512z"/>
	<path fill="#909090" d="M178.851,202.244c-3.359,0-6.083-2.721-6.089-6.077c-0.006-3.366,2.718-6.095,6.077-6.101l136.402-0.221
		c0.006,0,0.009,0,0.012,0c3.359,0,6.083,2.724,6.089,6.08c0.006,3.362-2.717,6.092-6.077,6.098l-136.402,0.221
		C178.856,202.244,178.854,202.244,178.851,202.244z"/>
	<path fill="#909090" d="M178.851,218.976c-3.359,0-6.083-2.717-6.089-6.076c-0.006-3.366,2.718-6.095,6.077-6.101l136.402-0.218
		c0.006,0,0.009,0,0.012,0c3.359,0,6.083,2.721,6.089,6.08c0.006,3.362-2.717,6.092-6.077,6.098l-136.402,0.217
		C178.856,218.976,178.854,218.976,178.851,218.976z"/>
	<path fill="#909090" d="M178.851,235.711c-3.359,0-6.083-2.721-6.089-6.08c-0.006-3.362,2.718-6.092,6.077-6.098l136.402-0.217
		c0.006,0,0.009,0,0.012,0c3.359,0,6.083,2.718,6.089,6.077c0.006,3.365-2.717,6.095-6.077,6.101l-136.402,0.217
		C178.856,235.711,178.854,235.711,178.851,235.711z"/>
	<rect x="187.687" y="192.498" fill="#FFFFFF" width="100.405" height="86.747"/>
	<path fill="#909090" d="M288.092,285.334H187.687c-3.362,0-6.089-2.724-6.089-6.089v-86.747c0-3.362,2.727-6.089,6.089-6.089
		h100.405c3.359,0,6.089,2.727,6.089,6.089v86.747C294.181,282.61,291.451,285.334,288.092,285.334z M193.775,273.156h88.228
		v-74.569h-88.228V273.156z"/>
	<path fill="#909090" d="M205.358,216.835c-3.354,0-6.08-2.711-6.089-6.07c-0.012-3.36,2.705-6.095,6.067-6.106l66.938-0.221
		c0.006,0,0.012,0,0.018,0c3.354,0,6.077,2.715,6.089,6.071c0.012,3.362-2.705,6.098-6.071,6.106l-66.935,0.22
		C205.37,216.835,205.364,216.835,205.358,216.835z"/>
	<path fill="#909090" d="M205.358,233.57c-3.354,0-6.08-2.714-6.089-6.067c-0.012-3.366,2.705-6.101,6.067-6.11l66.938-0.22
		c0.006,0,0.012,0,0.018,0c3.354,0,6.077,2.715,6.089,6.068c0.012,3.365-2.705,6.101-6.071,6.109l-66.935,0.22
		C205.37,233.57,205.364,233.57,205.358,233.57z"/>
	<path fill="#909090" d="M205.358,250.306c-3.354,0-6.08-2.714-6.089-6.071c-0.012-3.362,2.705-6.098,6.067-6.106l66.938-0.22
		c0.006,0,0.012,0,0.018,0c3.354,0,6.077,2.711,6.089,6.068c0.012,3.362-2.705,6.098-6.071,6.109l-66.935,0.22
		C205.37,250.306,205.364,250.306,205.358,250.306z"/>
	<path fill="#909090" d="M205.358,267.038c-3.354,0-6.08-2.712-6.089-6.071c-0.012-3.359,2.705-6.095,6.067-6.106l66.938-0.22
		c3.323-0.155,6.095,2.705,6.106,6.07c0.012,3.359-2.705,6.095-6.071,6.107l-66.935,0.22
		C205.37,267.038,205.364,267.038,205.358,267.038z"/>
	<rect x="258.37" y="79.243" fill="#FFFFFF" width="100.402" height="86.747"/>
	<path fill="#909090" d="M358.772,172.079H258.37c-3.362,0-6.089-2.724-6.089-6.089V79.243c0-3.362,2.727-6.089,6.089-6.089h100.402
		c3.365,0,6.089,2.727,6.089,6.089v86.747C364.861,169.355,362.138,172.079,358.772,172.079z M264.459,159.901h88.225V85.332
		h-88.225V159.901z"/>
	<path fill="#909090" d="M276.042,103.58c-3.354,0-6.08-2.711-6.089-6.07s2.705-6.095,6.068-6.106l66.935-0.221
		c0.006,0,0.015,0,0.021,0c3.354,0,6.08,2.715,6.089,6.071c0.009,3.362-2.705,6.098-6.068,6.106l-66.935,0.22
		C276.057,103.58,276.048,103.58,276.042,103.58z"/>
	<path fill="#909090" d="M276.042,120.312c-3.354,0-6.08-2.711-6.089-6.067c-0.009-3.362,2.705-6.098,6.068-6.11l66.935-0.217
		c0.006,0,0.015,0,0.021,0c3.354,0,6.08,2.715,6.089,6.068c0.009,3.365-2.705,6.101-6.068,6.109l-66.935,0.217
		C276.057,120.312,276.048,120.312,276.042,120.312z"/>
	<path fill="#909090" d="M276.042,137.048c-3.354,0-6.08-2.714-6.089-6.067c-0.009-3.366,2.705-6.102,6.068-6.11l66.935-0.217
		c0.006,0,0.015,0,0.021,0c3.354,0,6.08,2.712,6.089,6.068c0.009,3.362-2.705,6.098-6.068,6.109l-66.935,0.217
		C276.057,137.048,276.048,137.048,276.042,137.048z"/>
	<path fill="#909090" d="M276.042,153.783c-3.354,0-6.08-2.711-6.089-6.071c-0.009-3.359,2.705-6.095,6.068-6.106l66.935-0.22
		c0.006,0,0.015,0,0.021,0c3.354,0,6.08,2.711,6.089,6.071c0.009,3.359-2.705,6.094-6.068,6.106l-66.935,0.22
		C276.057,153.783,276.048,153.783,276.042,153.783z"/>
</g>
</svg>
