<?xml version="1.0" encoding="utf-8"?>
<!-- Generator: Adobe Illustrator 16.0.0, SVG Export Plug-In . SVG Version: 6.00 Build 0)  -->
<!DOCTYPE svg PUBLIC "-//W3C//DTD SVG 1.1//EN" "http://www.w3.org/Graphics/SVG/1.1/DTD/svg11.dtd">
<svg version="1.1" id="Layer_1" xmlns="http://www.w3.org/2000/svg" xmlns:xlink="http://www.w3.org/1999/xlink" x="0px" y="0px"
	 width="520px" height="320px" viewBox="0 0 520 320" enable-background="new 0 0 520 320" xml:space="preserve">
<g>
	<path fill="#FFFFFF" d="M383.968,102.244c1.347-21.48-6.189-43.414-22.604-59.83c-30.346-30.346-79.545-30.346-109.888,0
		c-8.389,8.386-14.459,18.214-18.208,28.687c-30.379-22.028-73.105-19.349-100.481,8.029
		c-11.249,11.246-18.327,25.082-21.238,39.588c-23.77-0.416-47.674,8.449-65.813,26.588c-35.468,35.465-35.468,92.971,0,128.438
		c17.751,17.752,41.024,26.619,64.292,26.602h0.018h290.938c0.065,0,0.134,0,0.199,0h0.021c25.497-0.029,50.985-9.771,70.439-29.227
		c38.97-38.969,38.97-102.148,0-141.119C447.787,106.145,414.861,96.893,383.968,102.244z"/>
	<path fill="#909090" d="M401.213,309.477H109.955c-26.701,0-51.8-10.395-70.677-29.275c-18.881-18.879-29.279-43.979-29.279-70.676
		c0-26.699,10.398-51.797,29.279-70.678c17.554-17.555,40.485-27.775,65.082-29.121c4.061-13.963,11.57-26.656,21.969-37.053
		c16.397-16.4,38.205-25.434,61.398-25.434c14.65,0,28.765,3.594,41.402,10.473c4.093-7.998,9.411-15.281,15.886-21.755
		c16.401-16.403,38.209-25.435,61.402-25.435s45.001,9.031,61.402,25.432c15.033,15.033,23.942,34.987,25.263,55.981
		c2.663-0.197,5.333-0.295,7.999-0.295c29.092,0,56.443,11.328,77.015,31.902c20.575,20.572,31.904,47.924,31.904,77.016
		c0,29.094-11.329,56.447-31.904,77.018C457.559,298.113,430.254,309.445,401.213,309.477z M109.955,127.84
		c-21.82,0-42.332,8.496-57.764,23.924c-15.429,15.43-23.928,35.941-23.928,57.762c0,21.818,8.499,42.332,23.928,57.764
		c15.429,15.428,35.943,23.924,57.764,23.924v9.133l0.062-9.133h290.964c24.382-0.027,47.109-9.457,64.202-26.553
		c17.123-17.119,26.553-39.885,26.553-64.102c0-24.213-9.43-46.979-26.553-64.098c-17.123-17.127-39.889-26.557-64.102-26.557
		c-5.202,0-10.438,0.449-15.556,1.336c-2.753,0.469-5.574-0.334-7.655-2.201c-2.081-1.863-3.192-4.578-3.018-7.365
		c1.23-19.65-6.037-38.896-19.947-52.802c-12.952-12.952-30.173-20.084-48.488-20.084s-35.536,7.132-48.485,20.084
		c-7.242,7.238-12.646,15.755-16.068,25.306c-0.969,2.709-3.153,4.799-5.9,5.646c-2.747,0.85-5.731,0.355-8.057-1.332
		c-11.721-8.496-25.615-12.988-40.18-12.988c-18.314,0-35.536,7.131-48.485,20.084c-9.602,9.605-16.082,21.68-18.74,34.928
		c-0.864,4.324-4.679,7.398-9.111,7.336L109.955,127.84z"/>
	<path fill="#FFFFFF" d="M135.413,243.424c-1.887,7.096,10.215,14.318,36.31,19.74c48.664,10.107,127.566,10.107,176.233,0
		c26.095-5.422,38.197-12.645,36.31-19.74h0.19v-93.473H135.224v93.473H135.413z"/>
	<path fill="#909090" d="M259.841,276.834c-33.693,0-65.424-2.738-89.354-7.711c-21.975-4.564-34.87-10.373-39.428-17.758
		c-1.442-2.336-2.084-4.842-1.894-7.354c-0.018-0.193-0.03-0.389-0.03-0.588v-93.473c0-3.363,2.727-6.088,6.089-6.088h249.232
		c3.361,0,6.088,2.725,6.088,6.088v93.473c0,0.199-0.009,0.398-0.029,0.59c0.187,2.51-0.452,5.02-1.895,7.355
		c-4.557,7.385-17.453,13.193-39.424,17.754C325.263,274.096,293.528,276.834,259.841,276.834z M141.3,244.984
		c0.101,0,3.092,6.283,31.66,12.217c23.143,4.811,53.996,7.457,86.881,7.457c32.882,0,63.736-2.646,86.876-7.457
		c29.011-6.025,31.647-12.408,31.665-12.473c-0.27-1.018-0.27-2.037-0.015-2.996v-85.693H141.312v86.082
		c0.229,0.936,0.238,1.918-0.012,2.865C141.3,244.984,141.3,244.984,141.3,244.984z"/>
	<path fill="#FFFFFF" d="M347.956,131.406c48.664,10.111,48.664,26.5,0,36.607c-48.667,10.109-127.569,10.109-176.233,0
		c-48.664-10.107-48.664-26.496,0-36.607C220.387,121.299,299.289,121.299,347.956,131.406"/>
	<path fill="#909090" d="M259.841,181.686c-33.693,0-65.424-2.738-89.354-7.709c-27.825-5.779-41.352-13.717-41.352-24.264
		s13.526-18.484,41.352-24.264c23.931-4.973,55.661-7.711,89.354-7.711c33.688,0,65.422,2.738,89.355,7.711
		c27.821,5.779,41.348,13.717,41.348,24.264s-13.526,18.484-41.348,24.264C325.263,178.947,293.528,181.686,259.841,181.686z
		 M141.3,149.838c0.101,0,3.092,6.281,31.66,12.219c23.143,4.803,53.996,7.451,86.881,7.451c32.882,0,63.736-2.648,86.876-7.451
		c28.708-5.965,31.588-12.277,31.663-12.471c0,0.002,0,0.002-0.004,0.002c-0.101,0-3.085-6.283-31.659-12.217
		c-23.14-4.811-53.994-7.457-86.876-7.457c-32.885,0-63.738,2.646-86.881,7.457C144.255,143.334,141.374,149.645,141.3,149.838
		L141.3,149.838z"/>
</g>
</svg>
