<?xml version="1.0" encoding="utf-8"?>
<!-- Generator: Adobe Illustrator 16.0.0, SVG Export Plug-In . SVG Version: 6.00 Build 0)  -->
<!DOCTYPE svg PUBLIC "-//W3C//DTD SVG 1.1//EN" "http://www.w3.org/Graphics/SVG/1.1/DTD/svg11.dtd">
<svg version="1.1" id="Layer_1" xmlns="http://www.w3.org/2000/svg" xmlns:xlink="http://www.w3.org/1999/xlink" x="0px" y="0px"
	 width="520px" height="320px" viewBox="0 0 520 320" enable-background="new 0 0 520 320" xml:space="preserve">
<g>
	<path fill="#FFFFFF" d="M384.006,102.234c1.347-21.483-6.19-43.418-22.607-59.836c-30.349-30.346-79.553-30.346-109.902,0
		c-8.387,8.391-14.458,18.217-18.21,28.69c-30.382-22.027-73.11-19.349-100.492,8.03c-11.247,11.25-18.326,25.087-21.236,39.596
		c-23.773-0.417-47.68,8.446-65.821,26.588c-35.472,35.472-35.472,92.982,0,128.451c17.753,17.755,41.028,26.624,64.299,26.605
		h0.018h290.968c0.065,0,0.134,0,0.199,0h0.018c25.503-0.029,50.994-9.775,70.45-29.23c38.974-38.975,38.974-102.161,0-141.135
		C447.831,106.139,414.901,96.886,384.006,102.234z"/>
	<path fill="#909090" d="M401.249,309.493H109.964c-26.704,0-51.806-10.4-70.685-29.282C20.397,261.332,10,236.23,10,209.529
		s10.397-51.806,29.279-70.685c17.556-17.559,40.49-27.78,65.089-29.124c4.064-13.961,11.571-26.659,21.965-37.059
		c16.405-16.403,38.216-25.435,61.412-25.435c14.648,0,28.768,3.591,41.405,10.471c4.095-7.991,9.41-15.278,15.886-21.757
		c16.405-16.402,38.216-25.435,61.411-25.435c23.196,0,45.007,9.032,61.409,25.435c15.034,15.035,23.944,34.99,25.265,55.982
		c2.664-0.193,5.334-0.291,7.997-0.291c29.098,0,56.453,11.33,77.026,31.904c42.474,42.47,42.474,111.579,0,154.049
		C457.604,298.127,430.296,309.46,401.249,309.493z M109.958,127.833c-21.819,0-42.334,8.497-57.764,23.927
		c-15.431,15.431-23.928,35.947-23.928,57.77s8.497,42.337,23.928,57.767c15.43,15.431,35.947,23.931,57.77,23.931v9.133
		l0.065-9.133h290.991c24.382-0.027,47.111-9.46,64.209-26.556c35.35-35.35,35.35-92.869,0-128.219
		c-17.125-17.122-39.893-26.553-64.111-26.553c-5.202,0-10.435,0.449-15.555,1.335c-2.75,0.476-5.574-0.333-7.655-2.2
		c-2.081-1.864-3.193-4.582-3.018-7.37c1.23-19.649-6.039-38.896-19.949-52.808c-12.954-12.951-30.177-20.083-48.494-20.083
		s-35.54,7.132-48.493,20.083c-7.24,7.245-12.647,15.76-16.069,25.312c-0.97,2.705-3.155,4.799-5.901,5.646
		c-2.744,0.848-5.732,0.357-8.058-1.331c-11.723-8.497-25.616-12.99-40.181-12.99c-18.317,0-35.54,7.133-48.494,20.084
		c-9.6,9.605-16.081,21.686-18.739,34.933c-0.868,4.323-4.667,7.374-9.115,7.338L109.958,127.833z"/>
	<path fill="#FFFFFF" d="M265.484,279.453c0,0,1.267-6.647,8.227-18.281c6.963-11.634,50.004,0,63.927-25.759
		s-4.219-76.003-2.53-95.555c1.687-19.551,12.656-19.939,12.656-19.939l-12.025-19.114c0,0-1.897,2.494-7.594,7.48
		c-5.696,4.985-13.926,4.153-13.926,4.153H216.75c0,0-8.229,0.832-13.926-4.153c-5.696-4.986-7.593-7.48-7.593-7.48l-12.026,19.114
		c0,0,10.971,0.389,12.656,19.939c1.688,19.552-16.456,69.796-2.53,95.555c13.923,25.759,56.964,14.125,63.924,25.759
		C264.218,272.806,265.484,279.453,265.484,279.453z"/>
	<path fill="#909090" d="M265.49,285.515c-0.018,0-0.035,0-0.057,0c-2.884-0.026-5.36-2.048-5.922-4.872
		c-0.045-0.211-1.386-6.16-7.48-16.343c-1.233-2.063-11.107-3.122-17.009-3.756c-15.691-1.686-37.188-3.992-47.049-22.235
		c-10.138-18.754-5.235-47.548-1.293-70.685c1.864-10.955,3.627-21.302,3.115-27.242c-1.133-13.126-6.751-14.381-6.808-14.381
		c-2.177-0.077-4.147-1.313-5.164-3.237c-1.021-1.927-0.934-4.248,0.229-6.092l12.026-19.11c1.061-1.689,2.887-2.751,4.882-2.84
		c2.069-0.054,3.909,0.809,5.116,2.396l0,0c0,0,1.796,2.241,6.758,6.585c3.514,3.074,8.919,2.712,9.348,2.673
		c0.172-0.015,0.395-0.026,0.567-0.026h97.469c0.205,0,0.41,0.009,0.612,0.029c0.211,0.024,5.789,0.398,9.303-2.676
		c4.986-4.364,6.773-6.605,6.791-6.627c1.225-1.558,3.211-2.458,5.119-2.331c1.978,0.104,3.794,1.143,4.847,2.816l12.025,19.11
		c1.22,1.936,1.556,4.397,0.387,6.362c-1.171,1.962-3.032,3.107-5.321,2.967c0.041,0.016-5.652,0.987-6.809,14.381
		c-0.512,5.943,1.249,16.29,3.115,27.242c3.939,23.137,8.842,51.931-1.293,70.685c-9.861,18.243-31.356,20.55-47.052,22.235
		c-5.898,0.634-15.774,1.692-17.009,3.756c-6.172,10.316-7.469,16.286-7.48,16.346C270.866,283.47,268.368,285.515,265.49,285.515z
		 M192.05,117.293c4.302,3.276,8.81,9.647,9.877,22.043c0.647,7.495-1.154,18.079-3.241,30.334
		c-3.627,21.29-8.14,47.789,0.003,62.848c6.814,12.608,23.188,14.368,37.633,15.917c11.702,1.258,21.808,2.344,26.157,9.609
		c1.136,1.896,2.132,3.675,3.006,5.328c0.871-1.653,1.867-3.432,3.003-5.325c4.35-7.272,14.455-8.354,26.157-9.612
		c14.446-1.549,30.821-3.306,37.636-15.917c8.141-15.059,3.63-41.558,0.003-62.848c-2.087-12.255-3.889-22.839-3.24-30.334
		c1.067-12.396,5.574-18.767,9.876-22.043l-4.222-6.71c-0.761,0.702-1.605,1.463-2.542,2.283
		c-5.679,4.971-12.811,5.715-16.557,5.715c-0.731,0-1.29-0.03-1.627-0.054h-96.975c-0.336,0.023-0.896,0.054-1.627,0.054
		c-3.746,0-10.878-0.744-16.557-5.715c-0.937-0.82-1.781-1.581-2.542-2.283L192.05,117.293z"/>
	<path fill="#909090" d="M263.927,201.154c-3.348,0-6.071-2.705-6.089-6.056l-0.276-50.516c-0.018-3.362,2.693-6.104,6.056-6.121
		c0.013,0,0.021,0,0.033,0c3.348,0,6.071,2.705,6.089,6.056l0.276,50.516c0.018,3.362-2.693,6.104-6.057,6.121
		C263.947,201.154,263.938,201.154,263.927,201.154z"/>
	<path fill="#909090" d="M250.997,246.36c-0.544,0-1.098-0.075-1.645-0.229c-3.237-0.906-5.129-4.267-4.222-7.504l12.656-45.202
		c0.904-3.241,4.275-5.141,7.504-4.222c3.238,0.906,5.129,4.266,4.222,7.504l-12.656,45.202
		C256.104,244.6,253.657,246.36,250.997,246.36z"/>
	<path fill="#909090" d="M277.172,246.36c-2.664,0-5.108-1.761-5.86-4.451l-12.656-45.202c-0.906-3.238,0.984-6.598,4.222-7.504
		c3.231-0.907,6.598,0.98,7.504,4.222l12.656,45.202c0.907,3.237-0.983,6.598-4.222,7.504
		C278.269,246.285,277.716,246.36,277.172,246.36z"/>
	<path fill="#FFFFFF" d="M271.24,133.633c3.951,3.952,3.951,10.358,0,14.312c-3.954,3.951-10.361,3.951-14.312,0
		c-3.951-3.954-3.951-10.36,0-14.312C260.879,129.682,267.286,129.682,271.24,133.633"/>
	<path fill="#909090" d="M264.084,156.999c-4.331,0-8.401-1.687-11.461-4.748c-6.317-6.324-6.317-16.605,0-22.923
		c3.06-3.062,7.13-4.748,11.461-4.748c4.329,0,8.399,1.686,11.462,4.745c6.317,6.32,6.317,16.602,0.002,22.926
		C272.483,155.312,268.413,156.999,264.084,156.999z M264.084,136.758c-1.079,0-2.09,0.419-2.851,1.181
		c-1.57,1.572-1.57,4.129,0.003,5.702c1.513,1.52,4.174,1.525,5.699-0.003c1.569-1.57,1.569-4.127,0-5.699
		C266.175,137.177,265.16,136.758,264.084,136.758z"/>
	<path fill="#909090" d="M245.372,201.523c-0.939,0-1.891-0.218-2.783-0.678c-2.99-1.54-4.165-5.212-2.622-8.2l18.085-35.082
		c1.54-2.991,5.212-4.162,8.2-2.622c2.99,1.54,4.165,5.212,2.622,8.199l-18.085,35.082
		C249.71,200.322,247.581,201.523,245.372,201.523z"/>
	<path fill="#909090" d="M282.169,201.523c-2.209,0-4.337-1.201-5.416-3.301l-18.086-35.082c-1.543-2.987-0.368-6.659,2.623-8.199
		c2.99-1.54,6.662-0.369,8.199,2.622l18.085,35.082c1.543,2.988,0.369,6.66-2.622,8.2
		C284.061,201.306,283.108,201.523,282.169,201.523z"/>
	<path fill="#909090" d="M389.262,218.689c-3.348,0-6.07-2.705-6.089-6.056l-0.276-50.516c-0.018-3.362,2.694-6.104,6.057-6.121
		c0.012,0,0.021,0,0.032,0c3.348,0,6.071,2.705,6.089,6.056l0.276,50.516c0.019,3.362-2.693,6.104-6.056,6.121
		C389.283,218.689,389.274,218.689,389.262,218.689z"/>
	<path fill="#909090" d="M376.332,263.896c-0.544,0-1.097-0.075-1.644-0.229c-3.238-0.907-5.129-4.267-4.223-7.504l12.657-45.202
		c0.903-3.241,4.274-5.138,7.504-4.222c3.237,0.906,5.128,4.266,4.222,7.504l-12.656,45.202
		C381.44,262.135,378.993,263.896,376.332,263.896z"/>
	<path fill="#909090" d="M402.507,263.896c-2.664,0-5.107-1.761-5.859-4.451l-12.656-45.202c-0.907-3.238,0.983-6.598,4.222-7.504
		c3.223-0.91,6.6,0.983,7.504,4.222l12.656,45.202c0.906,3.237-0.984,6.597-4.222,7.504
		C403.604,263.82,403.051,263.896,402.507,263.896z"/>
	<path fill="#FFFFFF" d="M396.576,151.168c3.951,3.951,3.951,10.361,0,14.312s-10.361,3.951-14.312,0s-3.951-10.361,0-14.312
		S392.625,147.217,396.576,151.168"/>
	<path fill="#909090" d="M389.42,174.534c-4.329,0-8.402-1.687-11.462-4.748c-6.32-6.321-6.32-16.602,0-22.923
		c3.06-3.062,7.133-4.748,11.462-4.748c4.328,0,8.401,1.686,11.461,4.748c6.32,6.321,6.32,16.602,0,22.923
		C397.821,172.848,393.748,174.534,389.42,174.534z M389.42,154.293c-1.076,0-2.091,0.419-2.852,1.181
		c-1.572,1.572-1.572,4.129,0,5.702c1.522,1.522,4.181,1.522,5.702,0c1.573-1.573,1.573-4.13,0-5.702
		C391.51,154.712,390.496,154.293,389.42,154.293z"/>
	<path fill="#909090" d="M370.707,219.062c-0.939,0-1.891-0.218-2.782-0.678c-2.991-1.54-4.166-5.212-2.623-8.2l18.086-35.082
		c1.54-2.991,5.211-4.165,8.199-2.622c2.991,1.54,4.165,5.212,2.622,8.199l-18.085,35.082
		C375.045,217.86,372.916,219.062,370.707,219.062z"/>
	<path fill="#909090" d="M407.505,219.062c-2.209,0-4.338-1.201-5.417-3.301l-18.085-35.082c-1.543-2.987-0.369-6.659,2.622-8.199
		c2.991-1.543,6.663-0.369,8.2,2.622l18.085,35.082c1.543,2.988,0.368,6.66-2.622,8.2
		C409.396,218.844,408.444,219.062,407.505,219.062z"/>
	<path fill="#909090" d="M139.216,218.689c-3.348,0-6.071-2.705-6.089-6.056l-0.276-50.516c-0.019-3.362,2.693-6.104,6.056-6.121
		c0.012,0,0.021,0,0.033,0c3.348,0,6.07,2.705,6.089,6.056l0.276,50.516c0.018,3.362-2.694,6.104-6.057,6.121
		C139.236,218.689,139.228,218.689,139.216,218.689z"/>
	<path fill="#909090" d="M126.286,263.896c-0.545,0-1.098-0.075-1.645-0.229c-3.237-0.907-5.129-4.267-4.222-7.504l12.656-45.202
		c0.904-3.241,4.272-5.138,7.504-4.222c3.237,0.906,5.129,4.266,4.222,7.504l-12.656,45.202
		C131.394,262.135,128.946,263.896,126.286,263.896z"/>
	<path fill="#909090" d="M152.461,263.896c-2.664,0-5.108-1.761-5.86-4.451l-12.656-45.202c-0.906-3.238,0.984-6.598,4.222-7.504
		c3.226-0.91,6.598,0.983,7.504,4.222l12.656,45.202c0.907,3.237-0.983,6.597-4.222,7.504
		C153.558,263.82,153.005,263.896,152.461,263.896z"/>
	<path fill="#FFFFFF" d="M146.529,151.168c3.951,3.951,3.951,10.361,0,14.312c-3.954,3.951-10.361,3.951-14.312,0
		s-3.951-10.361,0-14.312S142.575,147.217,146.529,151.168"/>
	<path fill="#909090" d="M139.373,174.534c-4.332,0-8.401-1.687-11.461-4.748c-6.321-6.321-6.321-16.602,0-22.923
		c3.06-3.062,7.129-4.748,11.461-4.748c4.329,0,8.399,1.686,11.461,4.745c6.321,6.324,6.321,16.604,0,22.926
		C147.772,172.848,143.702,174.534,139.373,174.534z M139.373,154.293c-1.079,0-2.09,0.419-2.851,1.181
		c-1.573,1.572-1.573,4.129,0,5.702c1.519,1.52,4.177,1.525,5.702-0.003c1.572-1.57,1.572-4.127,0-5.699
		C141.463,154.712,140.449,154.293,139.373,154.293z"/>
	<path fill="#909090" d="M120.661,219.062c-0.939,0-1.892-0.218-2.783-0.678c-2.991-1.54-4.165-5.212-2.622-8.2l18.085-35.082
		c1.54-2.991,5.215-4.165,8.199-2.622c2.991,1.54,4.166,5.212,2.623,8.199l-18.086,35.082
		C124.998,217.86,122.87,219.062,120.661,219.062z"/>
	<path fill="#909090" d="M157.458,219.062c-2.209,0-4.338-1.201-5.417-3.301l-18.085-35.082c-1.543-2.987-0.368-6.659,2.622-8.199
		c2.994-1.543,6.663-0.369,8.2,2.622l18.085,35.082c1.543,2.988,0.369,6.66-2.622,8.2
		C159.35,218.844,158.397,219.062,157.458,219.062z"/>
</g>
</svg>
