<?xml version="1.0" encoding="utf-8"?>
<!-- Generator: Adobe Illustrator 16.0.0, SVG Export Plug-In . SVG Version: 6.00 Build 0)  -->
<!DOCTYPE svg PUBLIC "-//W3C//DTD SVG 1.1//EN" "http://www.w3.org/Graphics/SVG/1.1/DTD/svg11.dtd">
<svg version="1.1" id="Layer_1" xmlns="http://www.w3.org/2000/svg" xmlns:xlink="http://www.w3.org/1999/xlink" x="0px" y="0px"
	 width="520px" height="320px" viewBox="0 0 520 320" enable-background="new 0 0 520 320" xml:space="preserve">
<g>
	<path fill="#FFFFFF" d="M383.958,102.238c1.344-21.483-6.19-43.418-22.61-59.836c-30.346-30.349-79.55-30.349-109.898,0
		c-8.388,8.388-14.458,18.216-18.21,28.688c-30.382-22.024-73.11-19.349-100.492,8.033c-11.247,11.247-18.326,25.086-21.236,39.592
		c-23.775-0.413-47.682,8.446-65.823,26.588c-35.469,35.475-35.469,92.982,0,128.454c17.755,17.755,41.028,26.62,64.298,26.603
		h0.021h290.967c0.065,0,0.131,0,0.199,0h0.018c25.5-0.03,50.991-9.772,70.446-29.231c38.974-38.971,38.974-102.159,0-141.13
		C447.78,106.142,414.851,96.89,383.958,102.238z"/>
	<path fill="#909090" d="M401.201,309.492H109.908c-26.695,0-51.797-10.399-70.679-29.278c-38.974-38.977-38.974-102.392,0-141.368
		c17.557-17.556,40.49-27.777,65.092-29.124c4.064-13.962,11.571-26.662,21.969-37.057c16.402-16.405,38.212-25.438,61.408-25.438
		c14.648,0,28.767,3.595,41.405,10.472c4.094-7.991,9.413-15.281,15.888-21.757c16.402-16.399,38.21-25.435,61.408-25.435
		c23.196,0,45.007,9.035,61.406,25.438c15.034,15.028,23.944,34.989,25.265,55.985c2.667-0.196,5.337-0.297,8-0.297
		c29.095,0,56.45,11.333,77.023,31.906C498.67,144.113,510,171.466,510,200.566c0,29.094-11.33,56.446-31.906,77.022
		C457.556,298.13,430.248,309.457,401.201,309.492z M109.917,127.833c-21.825,0-42.342,8.497-57.772,23.928
		c-31.851,31.853-31.851,83.686,0,115.538c15.434,15.431,35.947,23.928,57.764,23.928v9.133l0.068-9.133h290.996
		c24.382-0.03,47.11-9.461,64.206-26.556c17.125-17.125,26.555-39.893,26.555-64.104c0-24.219-9.43-46.986-26.555-64.111
		s-39.893-26.556-64.108-26.556c-5.202,0-10.435,0.452-15.555,1.338c-2.753,0.47-5.577-0.333-7.655-2.199
		c-2.081-1.864-3.193-4.579-3.018-7.371c1.228-19.651-6.045-38.898-19.952-52.804c-12.954-12.957-30.174-20.089-48.491-20.089
		c-18.316,0-35.539,7.132-48.493,20.086c-7.239,7.239-12.647,15.757-16.069,25.31c-0.969,2.705-3.154,4.798-5.901,5.648
		c-2.744,0.848-5.729,0.354-8.057-1.332c-11.723-8.5-25.616-12.992-40.181-12.992c-18.317,0-35.54,7.136-48.494,20.086
		c-9.6,9.604-16.081,21.68-18.738,34.934c-0.868,4.323-4.605,7.459-9.116,7.331L109.917,127.833z"/>
	<rect x="136.279" y="207.647" fill="#FFFFFF" width="99.924" height="39.667"/>
	<path fill="#909090" d="M236.203,253.403h-99.924c-3.362,0-6.089-2.727-6.089-6.089v-39.667c0-3.362,2.727-6.089,6.089-6.089
		h99.924c3.362,0,6.089,2.727,6.089,6.089v39.667C242.292,250.677,239.565,253.403,236.203,253.403z M142.368,241.226h87.746
		v-27.489h-87.746V241.226z"/>
	<polygon fill="#FFFFFF" points="236.266,246.66 293.488,168.636 294.341,125.515 259.263,119.354 259.263,146.049 236.266,207.57 	
		"/>
	<path fill="#909090" d="M236.266,252.749c-0.633,0-1.27-0.099-1.894-0.304c-2.504-0.817-4.195-3.151-4.195-5.785v-39.09
		c0-0.729,0.131-1.45,0.387-2.132l22.609-60.492v-25.592c0-1.796,0.797-3.506,2.174-4.662c1.38-1.159,3.193-1.647,4.968-1.332
		l35.079,6.16c2.958,0.518,5.096,3.116,5.036,6.115l-0.853,43.118c-0.027,1.255-0.438,2.471-1.181,3.481l-57.223,78.025
		C240.006,251.857,238.169,252.749,236.266,252.749z M242.354,208.671v19.39l45.083-61.471l0.714-35.979l-22.801-4.002v19.44
		c0,0.729-0.131,1.448-0.386,2.132L242.354,208.671z"/>
	<polygon fill="#FFFFFF" points="165.316,147.075 167.023,120.383 260.115,118.328 258.409,146.049 	"/>
	<path fill="#909090" d="M165.316,153.164c-1.671,0-3.267-0.685-4.418-1.897c-1.165-1.23-1.766-2.89-1.658-4.578l1.706-26.692
		c0.202-3.157,2.783-5.631,5.943-5.702l93.092-2.052c1.73-0.041,3.342,0.637,4.522,1.867c1.18,1.226,1.792,2.894,1.688,4.594
		l-1.707,27.721c-0.195,3.185-2.818,5.679-6.008,5.714l-93.092,1.026C165.361,153.164,165.338,153.164,165.316,153.164z
		 M172.743,126.347l-0.931,14.568l80.867-0.893l0.951-15.46L172.743,126.347z"/>
	<path fill="#FFFFFF" d="M165.316,134.755c0,0,21.35-6.16,39.286-6.16s56.369,0,57.223,5.134c0.854,5.135,0,10.267,0,18.478
		c0,8.215,11.957,9.24,24.769,9.24c12.811,0,23.059-10.263,23.059-10.263s4.27-33.881-8.542-40.041
		c-12.811-6.16-46.117-14.372-93.092-12.32c-46.974,2.055-64.055,10.269-70.887,18.48s-9.457,30.801-4.334,36.961
		c5.125,6.157,29.956,4.103,29.956,4.103l3.416-8.211L165.316,134.755z"/>
	<path fill="#909090" d="M286.594,167.535c-10.017,0-30.857,0-30.857-15.329c0-3.115,0.116-5.803,0.223-8.217
		c0.116-2.62,0.217-4.853,0.11-6.856c-5.916-1.626-23.193-2.449-51.467-2.449c-12.014,0-25.868,2.97-32.933,4.703l0.58,10.43
		c0.051,0.915-0.107,1.831-0.458,2.676l-3.416,8.214c-0.874,2.103-2.852,3.541-5.119,3.731c-0.173,0.012-4.284,0.348-9.57,0.348l0,0
		c-17.976,0-23.202-3.784-25.568-6.627c-7.626-9.169-3.871-34.889,4.335-44.75c10.232-12.303,34.16-18.87,75.301-20.669
		c4.968-0.217,9.963-0.327,14.845-0.327c39.568,0,68.445,7.136,81.152,13.242c15.95,7.671,12.748,39.904,11.942,46.29
		c-0.169,1.338-0.778,2.584-1.733,3.538C313.47,155.977,301.756,167.535,286.594,167.535z M204.603,122.506
		c53.042,0,61.932,2.429,63.229,10.224c0.645,3.88,0.484,7.549,0.294,11.798c-0.099,2.256-0.211,4.769-0.211,7.679
		c0,0.324,0.522,3.151,18.68,3.151c7.566,0,14.362-4.798,17.265-7.177c1.174-12.278,0.035-28.945-5.388-31.55
		c-9.3-4.472-35.745-12.041-75.872-12.041c-4.706,0-9.52,0.107-14.315,0.315c-36.438,1.594-58.804,7.076-66.472,16.292
		c-5.768,6.934-6.802,26.056-4.331,29.172l0,0c0.026,0,2.928,2.238,16.206,2.238l0,0c1.837,0,3.525-0.044,4.911-0.101l1.415-3.404
		l-0.775-14.009c-0.158-2.837,1.664-5.402,4.391-6.19C164.535,128.642,186.019,122.506,204.603,122.506z"/>
	<polygon fill="#FFFFFF" points="236.034,207.57 136.243,207.963 166.468,147.747 259.56,146.403 	"/>
	<path fill="#909090" d="M136.243,214.052c-2.107,0-4.064-1.091-5.176-2.884c-1.115-1.799-1.216-4.047-0.265-5.938l30.224-60.216
		c1.018-2.03,3.083-3.327,5.354-3.356l93.093-1.344c0.026,0,0.057,0,0.086,0c1.989,0,3.854,0.975,4.994,2.607
		c1.157,1.655,1.416,3.781,0.688,5.669l-23.526,61.165c-0.9,2.346-3.148,3.892-5.657,3.903l-99.791,0.393
		C136.258,214.052,136.252,214.052,136.243,214.052z M170.252,153.782l-24.12,48.05l85.713-0.333l18.799-48.877L170.252,153.782z"/>
	<rect x="268.205" y="157.683" fill="#FFFFFF" width="140.286" height="120.486"/>
	<path fill="#909090" d="M408.491,284.257H268.205c-3.362,0-6.089-2.726-6.089-6.088V157.683c0-3.359,2.727-6.089,6.089-6.089
		h140.286c3.363,0,6.089,2.729,6.089,6.089v120.486C414.58,281.531,411.854,284.257,408.491,284.257z M274.294,272.08h128.108
		V163.771H274.294V272.08z"/>
	<path fill="#909090" d="M282.696,182.291c-3.354,0-6.077-2.712-6.09-6.068c-0.012-3.359,2.703-6.095,6.065-6.109l58.593-0.221
		c0.009,0,0.018,0,0.023,0c3.354,0,6.077,2.712,6.09,6.068c0.012,3.359-2.703,6.095-6.065,6.109l-58.593,0.221
		C282.711,182.291,282.702,182.291,282.696,182.291z"/>
	<path fill="#909090" d="M282.696,199.026c-3.354,0-6.077-2.712-6.09-6.068c-0.012-3.362,2.703-6.098,6.068-6.109l60.255-0.221
		c0.006,0,0.015,0,0.021,0c3.354,0,6.077,2.712,6.089,6.065c0.013,3.362-2.702,6.101-6.067,6.112l-60.255,0.221
		C282.711,199.026,282.702,199.026,282.696,199.026z"/>
	<path fill="#909090" d="M282.696,215.758c-3.357,0-6.083-2.717-6.09-6.076c-0.006-3.362,2.715-6.095,6.077-6.101l111.847-0.221
		c0.003,0,0.009,0,0.012,0c3.356,0,6.083,2.718,6.089,6.077c0.006,3.362-2.715,6.095-6.077,6.101l-111.846,0.22
		C282.705,215.758,282.698,215.758,282.696,215.758z"/>
	<path fill="#909090" d="M282.696,232.49c-3.357,0-6.083-2.717-6.09-6.076c-0.006-3.36,2.715-6.095,6.077-6.101l111.847-0.221
		c0.003,0,0.009,0,0.012,0c3.356,0,6.083,2.718,6.089,6.077c0.006,3.365-2.715,6.095-6.077,6.101l-111.846,0.22
		C282.705,232.49,282.698,232.49,282.696,232.49z"/>
	<path fill="#909090" d="M282.696,249.226c-3.357,0-6.083-2.717-6.09-6.076c-0.006-3.363,2.715-6.096,6.077-6.102l111.847-0.217
		c0.003,0,0.009,0,0.012,0c3.356,0,6.083,2.718,6.089,6.077s-2.715,6.095-6.077,6.101l-111.846,0.217
		C282.705,249.226,282.698,249.226,282.696,249.226z"/>
	<path fill="#909090" d="M282.696,265.961c-3.357,0-6.083-2.717-6.09-6.077c-0.006-3.365,2.715-6.095,6.077-6.101l111.847-0.22
		c0.003,0,0.009,0,0.012,0c3.356,0,6.083,2.718,6.089,6.077c0.006,3.362-2.715,6.095-6.077,6.101l-111.846,0.22
		C282.705,265.961,282.698,265.961,282.696,265.961z"/>
</g>
</svg>
