<?xml version="1.0" encoding="utf-8"?>
<!-- Generator: Adobe Illustrator 16.0.0, SVG Export Plug-In . SVG Version: 6.00 Build 0)  -->
<!DOCTYPE svg PUBLIC "-//W3C//DTD SVG 1.1//EN" "http://www.w3.org/Graphics/SVG/1.1/DTD/svg11.dtd">
<svg version="1.1" id="Layer_1" xmlns="http://www.w3.org/2000/svg" xmlns:xlink="http://www.w3.org/1999/xlink" x="0px" y="0px"
	 width="520px" height="320px" viewBox="0 0 520 320" enable-background="new 0 0 520 320" xml:space="preserve">
<g>
	<path fill="#FFFFFF" d="M383.996,102.235c1.344-21.488-6.19-43.426-22.612-59.845c-30.35-30.35-79.559-30.35-109.91,0
		c-8.388,8.388-14.46,18.218-18.212,28.692c-30.385-22.029-73.118-19.354-100.503,8.031c-11.248,11.248-18.327,25.089-21.238,39.597
		c-23.778-0.414-47.686,8.45-65.83,26.594c-35.473,35.475-35.473,92.991,0,128.464c17.757,17.757,41.032,26.623,64.304,26.605h0.021
		h290.997c0.065,0,0.131,0,0.199,0h0.018c25.503-0.03,50.996-9.773,70.454-29.231c38.978-38.978,38.978-102.173,0-141.148
		C447.825,106.136,414.893,96.88,383.996,102.235z"/>
	<path fill="#909090" d="M401.241,309.508H109.924c-26.704,0-51.807-10.397-70.691-29.281c-38.978-38.978-38.978-102.402,0-141.381
		c17.558-17.558,40.494-27.779,65.098-29.13c4.064-13.963,11.572-26.662,21.97-37.06c16.404-16.407,38.214-25.44,61.415-25.44
		c14.649,0,28.771,3.595,41.41,10.476c4.094-7.995,9.41-15.28,15.89-21.759c16.403-16.404,38.213-25.44,61.414-25.44
		c23.198,0,45.011,9.036,61.412,25.44c15.036,15.03,23.947,34.993,25.268,55.991c2.667-0.196,5.337-0.298,8.001-0.298
		c29.098,0,56.455,11.335,77.031,31.91c42.478,42.478,42.478,111.59,0,154.064C457.602,298.144,430.291,309.473,401.241,309.508z
		 M109.927,127.833c-21.827,0-42.346,8.498-57.778,23.93c-31.854,31.856-31.854,83.69,0,115.547
		c15.435,15.433,35.951,23.93,57.775,23.93v9.135l0.065-9.135h291.023c24.385-0.029,47.115-9.461,64.213-26.558
		c35.353-35.354,35.353-92.876,0-128.229c-17.127-17.126-39.896-26.558-64.115-26.558c-5.203,0-10.437,0.452-15.557,1.338
		c-2.753,0.476-5.578-0.336-7.656-2.2c-2.081-1.864-3.193-4.579-3.018-7.371c1.228-19.653-6.045-38.903-19.954-52.81
		c-12.955-12.958-30.177-20.091-48.496-20.091c-18.318,0-35.543,7.133-48.498,20.088c-7.24,7.243-12.648,15.762-16.071,25.315
		c-0.969,2.705-3.154,4.796-5.902,5.646c-2.744,0.845-5.729,0.357-8.058-1.332c-11.724-8.497-25.621-12.993-40.185-12.993
		c-18.322,0-35.544,7.136-48.498,20.088c-9.602,9.604-16.083,21.685-18.741,34.938c-0.868,4.326-4.606,7.403-9.116,7.335
		L109.927,127.833z"/>
	<path fill="#909090" d="M447.962,199.164H88.61c-3.362,0-6.088-2.727-6.088-6.09s2.727-6.09,6.088-6.09h359.352
		c3.363,0,6.09,2.727,6.09,6.09S451.325,199.164,447.962,199.164z"/>
	<path fill="#909090" d="M447.959,197.62c-0.874,0-1.757-0.189-2.599-0.588l-75.42-35.648c-3.041-1.436-4.341-5.066-2.904-8.108
		c1.439-3.038,5.072-4.332,8.108-2.901l75.419,35.65c3.042,1.437,4.341,5.066,2.905,8.105
		C452.428,196.33,450.239,197.62,447.959,197.62z"/>
	<path fill="#909090" d="M372.546,237.47c-2.281,0-4.469-1.288-5.51-3.488c-1.437-3.041-0.137-6.669,2.904-8.108l75.42-35.647
		c3.026-1.43,6.669-0.14,8.108,2.905c1.436,3.039,0.137,6.666-2.905,8.105l-75.419,35.65
		C374.306,237.282,373.42,237.47,372.546,237.47z"/>
	<path fill="#FFFFFF" d="M323.429,139.988c29.963,29.962,29.963,78.544,0,108.507c-29.966,29.965-78.544,29.965-108.51,0
		c-29.963-29.963-29.963-78.545,0-108.507C244.885,110.025,293.463,110.025,323.429,139.988"/>
	<path fill="#909090" d="M269.174,275.534c-21.715,0-42.13-8.456-57.483-23.811c-31.696-31.696-31.696-83.269,0-114.965
		c15.354-15.354,35.769-23.811,57.483-23.811s42.13,8.456,57.484,23.811c31.695,31.696,31.695,83.269,0,114.965
		C311.304,267.078,290.889,275.534,269.174,275.534z M269.174,122.082c-19.273,0-37.396,7.508-51.025,21.135
		c-28.134,28.137-28.134,73.915,0,102.049c13.63,13.63,31.752,21.135,51.025,21.135s37.396-7.505,51.025-21.135
		c28.135-28.134,28.135-73.912,0-102.049C306.569,129.59,288.447,122.082,269.174,122.082z"/>
	<path fill="#909090" d="M268.698,142.352c-2.513,0-4.556-2.033-4.567-4.549l-0.057-12.596c-0.012-2.521,2.025-4.573,4.547-4.585
		c0.006,0,0.015,0,0.021,0c2.513,0,4.555,2.028,4.567,4.544l0.056,12.595c0.013,2.524-2.024,4.579-4.546,4.591
		C268.713,142.352,268.704,142.352,268.698,142.352z"/>
	<path fill="#909090" d="M200.944,198.334c-2.513,0-4.556-2.033-4.567-4.549c-0.012-2.521,2.025-4.573,4.546-4.585l12.596-0.06
		c0.006,0,0.015,0,0.021,0c2.513,0,4.556,2.033,4.567,4.549c0.012,2.521-2.025,4.573-4.546,4.585l-12.596,0.06
		C200.959,198.334,200.95,198.334,200.944,198.334z"/>
	<path fill="#909090" d="M325.13,198.334c-2.513,0-4.556-2.033-4.567-4.549c-0.012-2.521,2.024-4.573,4.546-4.585l12.593-0.06
		c0.006,0,0.015,0,0.021,0c2.513,0,4.555,2.033,4.567,4.549c0.012,2.521-2.025,4.573-4.547,4.585l-12.592,0.06
		C325.145,198.334,325.136,198.334,325.13,198.334z"/>
	<path fill="#909090" d="M309.841,160.186c-1.163,0-2.325-0.439-3.215-1.326c-1.793-1.771-1.805-4.665-0.029-6.458l8.863-8.943
		c1.772-1.793,4.668-1.805,6.458-0.03c1.793,1.775,1.805,4.669,0.03,6.458l-8.864,8.944
		C312.192,159.734,311.015,160.186,309.841,160.186z"/>
	<path fill="#909090" d="M230.55,160.186c-1.162,0-2.325-0.439-3.214-1.326l-8.947-8.863c-1.793-1.775-1.805-4.665-0.029-6.458
		c1.774-1.793,4.671-1.805,6.458-0.029l8.947,8.863c1.792,1.778,1.805,4.668,0.029,6.458
		C232.901,159.734,231.725,160.186,230.55,160.186z"/>
	<path fill="#909090" d="M245.83,148.161c-1.787,0-3.481-1.052-4.216-2.801l-4.871-11.613c-0.975-2.328,0.122-5.005,2.447-5.979
		c2.328-0.976,5.004,0.119,5.979,2.447l4.87,11.613c0.976,2.325-0.122,5.001-2.447,5.977
		C247.017,148.049,246.419,148.161,245.83,148.161z"/>
	<path fill="#909090" d="M292.518,148.206c-0.573,0-1.159-0.109-1.725-0.342c-2.334-0.951-3.455-3.621-2.501-5.955l4.767-11.659
		c0.952-2.331,3.616-3.452,5.956-2.497c2.334,0.951,3.455,3.621,2.5,5.955l-4.766,11.658
		C296.026,147.133,294.319,148.206,292.518,148.206z"/>
	<path fill="#909090" d="M321.351,177.598c-1.787,0-3.482-1.053-4.214-2.804c-0.978-2.325,0.119-5.001,2.444-5.979l11.617-4.87
		c2.331-0.981,5.004,0.119,5.977,2.444c0.979,2.325-0.119,5.001-2.444,5.977l-11.617,4.876
		C322.537,177.481,321.939,177.598,321.351,177.598z"/>
	<path fill="#909090" d="M217.925,177.598c-0.589,0-1.187-0.116-1.763-0.356l-11.614-4.876c-2.328-0.976-3.422-3.651-2.444-5.977
		c0.973-2.325,3.651-3.426,5.977-2.444l11.614,4.87c2.328,0.979,3.422,3.654,2.444,5.982
		C221.407,176.545,219.709,177.598,217.925,177.598z"/>
	<path fill="#909090" d="M332.982,222.525c-0.589,0-1.187-0.113-1.764-0.356l-11.614-4.871c-2.324-0.975-3.422-3.654-2.443-5.979
		c0.972-2.325,3.651-3.422,5.977-2.446l11.613,4.873c2.325,0.976,3.423,3.654,2.444,5.979
		C336.464,221.473,334.769,222.525,332.982,222.525z"/>
	<path fill="#909090" d="M206.341,222.525c-1.787,0-3.481-1.053-4.213-2.801c-0.979-2.325,0.118-5.004,2.443-5.979l11.614-4.873
		c2.331-0.976,5.004,0.121,5.977,2.446c0.979,2.325-0.119,5.005-2.444,5.979l-11.613,4.871
		C207.527,222.412,206.93,222.525,206.341,222.525z"/>
	<path fill="#909090" d="M327.657,243.698l-58.483-55.045l-58.483,55.045c1.336,1.57,2.748,3.102,4.229,4.582
		c29.966,29.966,78.544,29.966,108.51,0C324.912,246.8,326.321,245.269,327.657,243.698z"/>
	<path fill="#909090" d="M269.174,275.32c-21.715,0-42.13-8.456-57.483-23.811c-1.567-1.57-3.075-3.199-4.479-4.853
		c-1.576-1.855-1.424-4.615,0.348-6.286l58.483-55.042c1.76-1.653,4.502-1.653,6.262,0l58.483,55.042
		c1.771,1.671,1.924,4.431,0.348,6.286c-1.422,1.671-2.929,3.307-4.478,4.853C311.304,266.864,290.889,275.32,269.174,275.32z
		 M217.077,243.957c0.354,0.369,0.711,0.734,1.074,1.095c13.627,13.63,31.749,21.135,51.022,21.135s37.396-7.505,51.025-21.135
		c0.36-0.36,0.717-0.726,1.071-1.095l-52.097-49.03L217.077,243.957z"/>
	<path fill="#909090" d="M268.645,200.867c-2.289,0-4.486-1.302-5.519-3.515c-1.424-3.044-0.11-6.672,2.938-8.093l60.547-28.295
		c3.039-1.415,6.672-0.106,8.094,2.94c1.424,3.048,0.109,6.67-2.938,8.097l-60.546,28.289
		C270.387,200.683,269.51,200.867,268.645,200.867z"/>
</g>
</svg>
