<?xml version="1.0" encoding="utf-8"?>
<!-- Generator: Adobe Illustrator 16.0.0, SVG Export Plug-In . SVG Version: 6.00 Build 0)  -->
<!DOCTYPE svg PUBLIC "-//W3C//DTD SVG 1.1//EN" "http://www.w3.org/Graphics/SVG/1.1/DTD/svg11.dtd">
<svg version="1.1" id="Layer_1" xmlns="http://www.w3.org/2000/svg" xmlns:xlink="http://www.w3.org/1999/xlink" x="0px" y="0px"
	 width="520px" height="347.576px" viewBox="0 0 520 347.576" enable-background="new 0 0 520 347.576" xml:space="preserve">
<g>
	<path fill="#FFFFFF" d="M384.004,102.234c1.348-21.483-6.189-43.418-22.606-59.836c-30.35-30.346-79.554-30.346-109.902,0
		c-8.387,8.391-14.455,18.217-18.207,28.69c-30.385-22.027-73.113-19.349-100.495,8.03c-11.244,11.25-18.326,25.087-21.233,39.595
		c-23.776-0.416-47.683,8.447-65.824,26.589c-35.472,35.472-35.472,92.982,0,128.45c17.755,17.756,41.028,26.624,64.296,26.606
		h0.023H401.02c0.064,0,0.133,0,0.199,0h0.021c25.5-0.03,50.991-9.775,70.446-29.231c38.974-38.974,38.974-102.16,0-141.134
		C447.83,106.139,414.9,96.886,384.004,102.234z"/>
	<path fill="#909090" d="M401.251,309.492H109.963c-26.701,0-51.806-10.399-70.685-29.281C20.396,261.332,10,236.23,10,209.529
		s10.396-51.806,29.278-70.685c17.553-17.556,40.493-27.777,65.089-29.124c4.064-13.962,11.571-26.659,21.968-37.06
		c16.405-16.402,38.213-25.434,61.412-25.434c14.645,0,28.767,3.591,41.402,10.471c4.094-7.991,9.413-15.278,15.888-21.757
		c16.406-16.402,38.213-25.435,61.409-25.435c23.195,0,45.006,9.032,61.408,25.435c15.035,15.035,23.945,34.99,25.265,55.982
		c2.664-0.193,5.334-0.291,7.998-0.291c29.098,0,56.452,11.33,77.026,31.903c42.473,42.471,42.473,111.579,0,154.05
		C457.603,298.126,430.295,309.46,401.251,309.492z M109.96,127.833c-21.822,0-42.337,8.497-57.767,23.927
		c-15.431,15.431-23.928,35.947-23.928,57.77s8.497,42.336,23.928,57.767c15.43,15.43,35.947,23.93,57.77,23.93v9.134l0.062-9.134
		H401.02c24.382-0.026,47.11-9.46,64.209-26.555c35.35-35.35,35.35-92.87,0-128.22c-17.125-17.121-39.893-26.552-64.111-26.552
		c-5.203,0-10.436,0.448-15.555,1.335c-2.754,0.476-5.578-0.333-7.656-2.2c-2.081-1.864-3.192-4.582-3.018-7.37
		c1.231-19.649-6.038-38.896-19.949-52.808c-12.953-12.951-30.177-20.083-48.493-20.083c-18.317,0-35.54,7.132-48.494,20.083
		c-7.239,7.242-12.647,15.76-16.066,25.312c-0.969,2.705-3.154,4.796-5.898,5.646c-2.747,0.848-5.737,0.357-8.06-1.332
		c-11.723-8.497-25.619-12.989-40.181-12.989c-18.32,0-35.54,7.133-48.497,20.083c-9.603,9.606-16.081,21.686-18.736,34.934
		c-0.855,4.272-4.611,7.338-8.954,7.338c-0.054,0-0.107,0-0.161,0L109.96,127.833z"/>
	<rect x="153.788" y="286.582" fill="#FFFFFF" width="236.733" height="27.399"/>
	<path fill="#909090" d="M221.128,332.325c-3.359,0-6.089-2.726-6.089-6.089V213.454c0-3.363,2.729-6.089,6.089-6.089
		c3.366,0,6.089,2.726,6.089,6.089v112.782C227.217,329.6,224.494,332.325,221.128,332.325z"/>
	<path fill="#909090" d="M199.817,265.078c-0.835,0-1.683-0.173-2.491-0.535c-3.068-1.377-4.439-4.98-3.062-8.048l20.425-45.533
		c1.374-3.07,4.983-4.438,8.045-3.064c3.068,1.376,4.442,4.979,3.065,8.048l-20.425,45.532
		C204.36,263.737,202.143,265.078,199.817,265.078z"/>
	<path fill="#909090" d="M243.081,265.078c-2.325,0-4.549-1.341-5.56-3.601l-20.425-45.532c-1.376-3.068-0.006-6.672,3.062-8.048
		c3.065-1.374,6.671-0.006,8.048,3.064l20.425,45.533c1.377,3.067,0.003,6.671-3.065,8.048
		C244.758,264.905,243.914,265.078,243.081,265.078z"/>
	<path fill="#909090" d="M311.001,332.325c-3.362,0-6.089-2.726-6.089-6.089V213.454c0-3.363,2.727-6.089,6.089-6.089
		s6.089,2.726,6.089,6.089v112.782C317.09,329.6,314.363,332.325,311.001,332.325z"/>
	<path fill="#909090" d="M310.118,332.328c-2.325,0-4.546-1.341-5.56-3.6l-20.426-45.533c-1.376-3.067-0.002-6.671,3.065-8.048
		c3.068-1.379,6.669-0.006,8.048,3.065l20.426,45.532c1.376,3.068,0.003,6.672-3.065,8.048
		C311.798,332.156,310.95,332.328,310.118,332.328z"/>
	<path fill="#909090" d="M312.52,332.328c-0.832,0-1.68-0.172-2.488-0.535c-3.068-1.376-4.441-4.979-3.064-8.048l20.425-45.532
		c1.379-3.068,4.985-4.441,8.048-3.065c3.068,1.377,4.441,4.98,3.065,8.048l-20.425,45.533
		C317.065,330.987,314.845,332.328,312.52,332.328z"/>
	<path fill="#FFFFFF" d="M308.699,110.068c23.541,23.541,23.541,61.706,0,85.247c-23.54,23.54-61.708,23.54-85.246,0
		c-23.541-23.541-23.541-61.706,0-85.247C246.991,86.528,285.159,86.528,308.699,110.068"/>
	<path fill="#909090" d="M266.075,217.539c-17.321,0-33.607-6.746-45.851-18.995c-25.283-25.283-25.283-66.421,0-91.704
		c12.243-12.249,28.529-18.992,45.851-18.992s33.607,6.743,45.854,18.992c25.282,25.283,25.282,66.421,0,91.704
		C299.683,210.793,283.396,217.539,266.075,217.539z M266.075,96.981c-14.884,0-28.872,5.794-39.394,16.316
		c-21.721,21.721-21.721,57.067,0,78.788c10.521,10.522,24.51,16.319,39.394,16.319c14.883,0,28.871-5.797,39.396-16.319
		c21.722-21.721,21.722-57.067,0-78.788C294.946,102.775,280.958,96.981,266.075,96.981z"/>
	<path fill="#909090" d="M265.7,112.902c-2.515,0-4.555-2.031-4.566-4.546l-0.045-9.895c-0.012-2.521,2.024-4.575,4.546-4.588
		c0.006,0,0.015,0,0.021,0c2.512,0,4.555,2.031,4.566,4.546l0.044,9.895c0.013,2.521-2.024,4.575-4.546,4.588
		C265.712,112.902,265.706,112.902,265.7,112.902z"/>
	<path fill="#909090" d="M212.471,156.886c-2.512,0-4.555-2.031-4.566-4.546c-0.012-2.521,2.024-4.576,4.546-4.588l9.897-0.044
		c0.006,0,0.012,0,0.018,0c2.515,0,4.555,2.03,4.566,4.545c0.012,2.521-2.021,4.576-4.543,4.588l-9.897,0.045
		C212.482,156.886,212.477,156.886,212.471,156.886z"/>
	<path fill="#909090" d="M310.034,156.886c-2.512,0-4.555-2.031-4.566-4.546c-0.012-2.521,2.024-4.576,4.546-4.588l9.895-0.044
		c0.006,0,0.015,0,0.021,0c2.513,0,4.555,2.03,4.566,4.545c0.013,2.521-2.024,4.576-4.546,4.588l-9.894,0.045
		C310.05,156.886,310.041,156.886,310.034,156.886z"/>
	<path fill="#909090" d="M298.023,126.914c-1.162,0-2.325-0.44-3.214-1.323c-1.793-1.774-1.805-4.668-0.03-6.457l6.967-7.028
		c1.774-1.793,4.67-1.805,6.457-0.03c1.793,1.775,1.805,4.668,0.029,6.458l-6.966,7.028
		C300.375,126.462,299.197,126.914,298.023,126.914z"/>
	<path fill="#909090" d="M235.732,126.914c-1.166,0-2.325-0.44-3.218-1.323l-7.028-6.966c-1.789-1.774-1.801-4.668-0.029-6.457
		c1.777-1.793,4.668-1.808,6.461-0.03l7.027,6.966c1.793,1.775,1.805,4.668,0.027,6.458
		C238.08,126.462,236.906,126.914,235.732,126.914z"/>
	<path fill="#909090" d="M247.737,117.469c-1.784,0-3.479-1.05-4.216-2.801l-3.829-9.124c-0.976-2.325,0.118-5.001,2.443-5.977
		c2.325-0.978,5.007,0.119,5.981,2.444l3.83,9.124c0.975,2.325-0.119,5.001-2.444,5.977
		C248.927,117.355,248.326,117.469,247.737,117.469z"/>
	<path fill="#909090" d="M284.413,117.501c-0.574,0-1.16-0.106-1.728-0.339c-2.334-0.957-3.452-3.621-2.498-5.958l3.746-9.157
		c0.958-2.327,3.606-3.457,5.959-2.497c2.333,0.957,3.451,3.621,2.497,5.958l-3.746,9.157
		C287.918,116.431,286.215,117.501,284.413,117.501z"/>
	<path fill="#909090" d="M307.067,140.59c-1.787,0-3.481-1.052-4.213-2.801c-0.978-2.324,0.119-5,2.444-5.976l9.124-3.826
		c2.328-0.984,5.004,0.122,5.976,2.443c0.979,2.325-0.119,5.001-2.443,5.977l-9.125,3.826
		C308.254,140.478,307.656,140.59,307.067,140.59z"/>
	<path fill="#909090" d="M225.813,140.59c-0.589,0-1.188-0.112-1.766-0.356l-9.121-3.826c-2.328-0.976-3.423-3.651-2.447-5.977
		c0.973-2.327,3.651-3.431,5.979-2.443l9.122,3.826c2.328,0.976,3.422,3.651,2.446,5.976
		C229.292,139.538,227.598,140.59,225.813,140.59z"/>
	<path fill="#909090" d="M316.203,175.89c-0.588,0-1.186-0.113-1.763-0.357l-9.124-3.826c-2.325-0.976-3.422-3.65-2.444-5.976
		c0.973-2.325,3.648-3.425,5.977-2.444l9.124,3.826c2.325,0.976,3.422,3.651,2.443,5.977
		C319.686,174.837,317.99,175.89,316.203,175.89z"/>
	<path fill="#909090" d="M216.71,175.89c-1.783,0-3.481-1.053-4.216-2.801c-0.975-2.325,0.119-5.001,2.447-5.977l9.124-3.826
		c2.325-0.98,5.001,0.119,5.976,2.444c0.976,2.325-0.118,5-2.443,5.976l-9.124,3.826C217.896,175.776,217.299,175.89,216.71,175.89z
		"/>
	<path fill="#909090" d="M312.021,191.548l-45.945-43.246l-45.946,43.246c1.05,1.234,2.159,2.433,3.324,3.598
		c23.538,23.541,61.706,23.541,85.246,0C309.865,193.98,310.971,192.782,312.021,191.548z"/>
	<path fill="#909090" d="M266.075,217.369c-17.321,0-33.607-6.746-45.851-18.995c-1.231-1.228-2.432-2.526-3.568-3.861
		c-1.581-1.853-1.433-4.62,0.343-6.288l45.948-43.246c1.754-1.659,4.498-1.659,6.258,0l45.946,43.246
		c1.771,1.668,1.924,4.433,0.345,6.288c-1.142,1.335-2.34,2.634-3.567,3.861C299.683,210.623,283.396,217.369,266.075,217.369z
		 M226.545,191.78c0.045,0.045,0.09,0.092,0.137,0.137c10.521,10.521,24.51,16.316,39.394,16.319
		c14.883,0,28.871-5.798,39.396-16.319c0.045-0.045,0.09-0.089,0.134-0.137l-39.529-37.208L226.545,191.78z"/>
	<path fill="#909090" d="M265.658,159.198c-2.289,0-4.482-1.299-5.518-3.511c-1.424-3.048-0.107-6.672,2.938-8.093l47.568-22.224
		c3.039-1.415,6.672-0.11,8.094,2.938c1.424,3.047,0.109,6.671-2.938,8.093l-47.569,22.224
		C267.4,159.014,266.523,159.198,265.658,159.198z"/>
</g>
</svg>
